<?xml version="1.0" encoding="UTF-8"?>
<svg version="1.1" viewBox="0 0 1544 1600" width="1280" height="1280" xmlns="http://www.w3.org/2000/svg">
<path transform="translate(1015 400)" d="m0 0c8.21 0.21 8.21 0.21 10.2 2.19 1.99 0.35 3.99 0.68 6 1 3.25 0.63 6.5 1.32 9.75 2 0.86 0.18 1.72 0.35 2.61 0.54 1.24 0.26 1.24 0.26 2.5 0.52 1.12 0.23 1.12 0.23 2.26 0.47 1.88 0.47 1.88 0.47 3.88 1.47 2.01 0.48 4.04 0.93 6.06 1.37 20.5 4.69 20.5 4.69 25.9 11.6 1.86 10.3-0.31 26.7-5.04 36-1.27 2.57-1.39 5.13-1.69 7.95-0.38 2.81-1.35 5.34-2.27 8.01-0.47 2.06-0.93 4.11-1.37 6.18-0.96 4.28-2.05 8.54-3.14 12.8-1.05 4.16-2.02 8.33-2.94 12.5-2.98 13.5-6.07 27-9.75 40.4-0.98 3.83-1.7 7.66-2.31 11.6-0.63 3.26-1.58 6.38-2.49 9.57-0.67 2.82-1.27 5.66-1.88 8.5-1.22 5.6-2.53 11.2-4.06 16.7-1.75 6.39-3.18 12.8-4.56 19.3-1.33 6.23-2.68 12.4-4.38 18.6-2.12 7.7-3.93 15.5-5.75 23.2-0.15 0.65-0.3 1.3-0.46 1.97-1.4 5.99-2.79 12-3.96 18-1.12 5.77-2.7 11.4-4.27 17.1-0.33 1.2-0.33 1.2-0.66 2.42-0.2 0.71-0.39 1.42-0.6 2.16-0.56 2.34-0.56 2.34-0.42 6.04 0.63-0.01 1.27-0.02 1.92-0.02 6.64-0.07 13.3-0.11 19.9-0.15 2.47-0.01 4.95-0.03 7.42-0.06 3.56-0.04 7.13-0.05 10.7-0.07 1.1-0.01 2.2-0.03 3.34-0.04 6.06 0 10.4 0.45 15.7 3.34l2 1c0.91 3.98 1.13 7.81 1.13 11.9v3.35c0 1.14 0 2.28-0.01 3.46 0.01 1.12 0.01 2.24 0.01 3.39-0.01 13.6-1.88 25.8-5.57 38.8-0.33 1.19-0.33 1.19-0.67 2.4-0.44 1.55-0.88 3.09-1.32 4.64-0.46 1.63-0.91 3.26-1.35 4.89-4.68 16.6-12.6 32.3-21.2 47.1-0.46 0.8-0.92 1.61-1.39 2.44-3.04 5.23-6.36 9.98-10.2 14.6-1.61 1.95-1.61 1.95-2.42 4.91-1.31 1.35-2.65 2.68-4 4-2.44 2.87-4.47 5.55-6 9h-2c-0.31 0.62-0.62 1.23-0.94 1.87-0.69 1.38-1.37 2.75-2.06 4.13h-2c-0.27 0.58-0.53 1.16-0.81 1.76-1.23 2.31-2.59 4.08-4.32 6.05-0.54 0.63-1.08 1.25-1.63 1.89-1.91 1.96-3.85 3.71-5.91 5.49-5.58 4.82-10.7 10.1-15.8 15.4-3.97 4.03-7.75 7.35-12.5 10.4-1.67 1.66-3.34 3.33-5 5-2.5 2.04-5.09 3.96-7.69 5.87-0.71 0.53-1.42 1.06-2.15 1.6-5.32 3.94-10.7 7.8-16.2 11.5-0.83 0.58-1.65 1.16-2.5 1.75-0.81 0.56-1.61 1.11-2.44 1.68-0.71 0.5-1.42 0.99-2.15 1.5-1.91 1.07-1.91 1.07-4.91 1.07v2l-2 1c-0.03 1.16-0.05 2.32-0.08 3.51-0.09 4.34-0.19 8.69-0.29 13-0.05 1.87-0.09 3.74-0.13 5.61-0.06 2.71-0.12 5.42-0.19 8.12-0.01 0.82-0.03 1.65-0.05 2.5-0.46 18.5-0.46 18.5-5.26 25.2-3.45 2.3-4.72 2.25-8.78 2.26-1.21 0.01-2.42 0.01-3.67 0.02h-4.05c-1.43 0-2.86 0.01-4.29 0.01-3.95 0.02-7.89 0.02-11.8 0.02-4.25 0.01-8.5 0.02-12.8 0.04-7.38 0.02-14.8 0.03-22.1 0.04-10.7 0.02-21.4 0.04-32.1 0.07-17.4 0.05-34.9 0.08-52.3 0.12-16.8 0.03-33.7 0.06-50.5 0.1-1.03 0-2.06 0.01-3.12 0.01-4.15 0.01-8.3 0.02-12.4 0.03-32.9 0.08-65.8 0.15-98.7 0.21-2.47 0.01-4.93 0.01-7.4 0.02h-2.37c-1.55 0-3.1 0.01-4.65 0.01-3.76 0.01-7.51 0.01-11.3 0.01-7.21 0-14.4 0.03-21.6 0.16-3.59 0.06-7.18 0.1-10.8 0.15-1.72 0.02-3.44 0.05-5.16 0.1-2.39 0.06-4.78 0.09-7.17 0.11-0.7 0.02-1.4 0.05-2.12 0.08-5.55 0-8.84-1.94-12.8-5.57-2.68-3.48-3.38-5.99-3.43-10.3-0.02-1.04-0.04-2.08-0.06-3.16-0.01-1.66-0.01-1.66-0.02-3.37-0.02-1.14-0.04-2.29-0.06-3.47-0.05-3.66-0.09-7.32-0.12-11-0.03-2.49-0.07-4.97-0.1-7.45-0.09-6.08-0.16-12.2-0.21-18.2-0.61-0.3-1.21-0.59-1.83-0.89-2.89-1.48-5.5-3.3-8.17-5.11l-4.5-3c-0.76-0.51-1.53-1.02-2.31-1.55-1.36-0.9-2.72-1.79-4.1-2.66-1.4-0.88-2.75-1.83-4.09-2.79v-2c-0.66-0.21-1.32-0.42-2-0.63-4.07-1.86-7.69-4.35-11-7.37v-2c-1.04-0.31-1.04-0.31-2.09-0.63-3.86-1.82-6.49-4.42-9.54-7.37-1.13-1.09-2.27-2.17-3.41-3.25-0.5-0.48-1-0.96-1.51-1.46-1.63-1.51-1.63-1.51-4.45-3.29v-2c-0.84-0.34-0.84-0.34-1.69-0.69-2.99-1.7-4.93-3.82-7.31-6.31-1.33-1.34-2.67-2.67-4-4l-4-4c-0.8-0.79-1.61-1.59-2.43-2.4-2.65-2.68-5.18-5.43-7.7-8.23-3.23-3.61-3.23-3.61-6.61-7.08-1.55-1.59-2.27-3.31-3.26-5.29-1-1.01-2-2-3-3-2.08-2.61-4.03-5.31-6-8-0.5-0.65-0.99-1.3-1.5-1.98-3.5-4.68-3.5-4.68-3.5-8.02h-2c-3.02-5.32-6.02-10.7-9-16-0.38-0.67-0.75-1.34-1.13-2.02-4.71-8.45-8.58-16.9-11.9-26-0.7-1.8-1.41-3.59-2.13-5.38-0.32-0.8-0.64-1.6-0.97-2.43-0.78-1.9-1.65-3.77-2.53-5.63-1.57-4.07-2.27-8-2.94-12.3-0.21-2.22-0.21-2.22-1.43-3.26-2.2-11.5-3.31-23.2-3.81-34.9-0.06-1.1-0.11-2.19-0.17-3.33-0.44-13-0.44-13 4.48-18.7 3.53-3 5.19-3.25 9.74-3.25 1.1-0.01 2.19-0.01 3.32-0.01h3.59 3.68c2.57 0 5.14 0 7.71 0.01 3.94 0 7.88 0 11.8-0.01h7.47 3.6c1.09 0 2.19 0 3.31 0.01h2.93c2.32 0.13 2.32 0.13 4.32 1.13-0.56-1.27-1.13-2.54-1.69-3.81-0.36-0.83-0.72-1.65-1.1-2.5-0.81-1.8-1.65-3.58-2.52-5.35-4.35-8.96-6.07-17.4-5.69-27.3h-2c-0.12-10.3 0.01-20.7 0.37-31 0.03-1.06 0.06-2.12 0.1-3.2 0.03-0.99 0.07-1.97 0.11-2.99 0.03-0.88 0.07-1.76 0.1-2.67 0.32-2.14 0.32-2.14 2.32-4.14 2.06-0.24 2.06-0.24 4.63-0.23h2.91c1.04 0.01 2.08 0.02 3.15 0.03s2.13 0.01 3.22 0.01c3.41 0.01 6.81 0.04 10.2 0.06 2.31 0.01 4.61 0.02 6.91 0.03 5.66 0.02 11.3 0.06 17 0.1-0.21-0.54-0.41-1.08-0.62-1.63-0.27-0.71-0.54-1.42-0.81-2.16-0.27-0.7-0.54-1.4-0.81-2.13-1.06-2.89-1.95-5.82-2.83-8.77-1.15-3.86-2.43-7.57-3.93-11.3-6.41-19.5-6.41-19.5-6-26h-2c-0.27-1.15-0.53-2.29-0.81-3.48-0.35-1.53-0.71-3.06-1.07-4.59-0.26-1.12-0.26-1.12-0.52-2.27-0.82-3.5-1.68-6.94-2.71-10.4-3.4-12.5 0.84-25.8 6.92-36.8 0.71-1.18 1.44-2.35 2.19-3.5h2c0.22-0.72 0.45-1.45 0.69-2.19 3.16-6.79 9.79-10.6 16.3-13.8 2.81-0.67 2.81-0.67 5-1v-2c20-6.53 20-6.53 27-3 0.08-0.79 0.16-1.57 0.25-2.38 0.99-4.8 2.83-9.12 4.75-13.6h2v-2h2c0.09-0.74 0.19-1.47 0.28-2.23 0.82-3.18 1.97-4.67 4.15-7.08 0.62-0.7 1.24-1.4 1.88-2.12 1.69-1.57 1.69-1.57 3.69-1.57 0.34-0.87 0.34-0.87 0.69-1.75 2.92-5.01 8.62-7.84 13.5-10.8 0.66-0.4 1.32-0.79 2-1.2 5.09-3 10.2-5.39 15.8-7.3 1.01-0.39 2.02-0.79 3.06-1.19 14.7-4.07 33.5-3.47 47.9 1.19v2c1.21 0.29 2.43 0.57 3.69 0.87 3.23 0.81 6.25 1.79 9.31 3.13v2c1.98 0.33 3.96 0.66 6 1v2c0.99 0.33 1.98 0.66 3 1v2c0.8 0.34 0.8 0.34 1.62 0.69 3.2 1.76 5.67 3.84 8.38 6.31v2h2c5.27 6.38 16 19.4 16 28 1.12-0.03 2.24-0.05 3.39-0.07 1.47-0.02 2.95-0.04 4.42-0.06 0.74-0.01 1.48-0.03 2.24-0.05 3.86-0.03 5.66-0.02 8.95 2.18 2.27 0.66 2.27 0.66 4.69 1.12 0.8 0.17 1.61 0.34 2.44 0.51 0.62 0.12 1.23 0.24 1.87 0.37v2c0.62 0.14 1.23 0.29 1.87 0.43 2.13 0.57 2.13 0.57 4.13 1.57v2h3v2c0.68 0.16 1.36 0.33 2.06 0.5 7.42 3.79 12.3 12.2 15.9 19.5 0.87 3.62 0.87 3.62 1 6h2c3.04 13.5 1.7 25.8-2 39-0.33 1.41-0.64 2.83-0.94 4.25-0.92 4.25-1.99 8.47-3.06 12.7-1.11 4.36-2.17 8.71-3 13.1-0.78 4.15-1.87 8.18-3 12.2-1.3 4.7-2.34 9.35-3 14.2-0.93 6.66-2.65 13-4.45 19.5-0.99 3.58-1.93 7.16-2.86 10.8-0.28 1.02-0.28 1.02-0.56 2.06-0.84 3.28-1.23 4.9-0.13 8.19 3.79 0 5.63-1.25 9-3 2.98-1.38 5.98-2.71 9-4 0.79-0.36 1.58-0.72 2.4-1.08 10.8-3.83 25.3-2.56 36.6-0.92l2 1c1.33 0.51 2.66 1.01 4 1.5 2.07 0.76 4.03 1.51 6 2.5v2c0.91 0.27 1.81 0.53 2.75 0.81 2.98 1.09 4.93 2.05 7.25 4.19v2c0.83 0.34 0.83 0.34 1.69 0.69 2.94 1.67 4.94 3.89 7.31 6.31 3.04 2.66 3.04 2.66 7 3 0.28-0.89 0.56-1.77 0.85-2.68 2.47-7.4 5.22-13.6 9.69-20.1 1.61-2.22 1.61-2.22 2.46-5.2 1.63-1.65 1.63-1.65 3.69-3.38 0.72-0.61 1.44-1.22 2.19-1.85 0.7-0.59 1.4-1.17 2.12-1.77 0.82-0.71 0.82-0.71 1.65-1.43 14.1-12.1 30.2-16.8 48.4-16.7h2.84c1.96 0 3.92 0 5.89 0.01 3.01 0 6.02 0 9.03-0.01h5.74 2.73c0.83 0 1.67 0 2.53 0.01h2.22c1.94 0.13 1.94 0.13 4.94 1.13 0.1 6.38 0.17 12.8 0.22 19.1 0.02 2.17 0.04 4.33 0.08 6.49 0.29 18.6-1.08 33.9-10.3 50.4-1.01 1.99-2.01 3.99-3 6 0.57-0.07 1.14-0.15 1.74-0.22 9.41-1.03 18.8-0.87 28.3-0.78-0.04-1.36-0.04-1.36-0.08-2.75 0.07-2.87 0.33-4.62 1.33-7.25 3.01-8.46 5.52-17.1 7.26-25.9 0.49-2.06 0.49-2.06 1.35-4.63 1.56-4.72 2.84-9.51 4.14-14.3 0.39-1.43 0.39-1.43 0.79-2.89 1.28-4.71 2.52-9.43 3.69-14.2 2.91-11.7 5.99-23.3 9.21-34.9 0.28-1.03 0.28-1.03 0.57-2.08 1.01-3.6 2.06-7.19 3.16-10.8 2.26-7.51 4.13-15.1 6.06-22.7 0.3-1.15 0.59-2.3 0.9-3.49 0.26-1.04 0.52-2.07 0.8-3.14 0.83-3.04 1.81-6.01 2.82-9 0.58-2.46 1.14-4.91 1.69-7.38 1.62-7.15 3.59-14.2 5.68-21.2 2.76-9.24 5.2-18.5 7.49-27.9 1.62-6.57 3.41-13.1 5.38-19.6 1.84-6.11 3.37-12.3 4.86-18.5 0.83-3.23 1.84-6.33 2.9-9.49 0.68-2.5 1.35-5 2-7.5 1.18-4.57 2.46-9.04 4-13.5 0.33-1.01 0.66-2.02 1-3.07 0.91-2.68 1.92-5.31 3-7.93h2c0.29-0.62 0.57-1.24 0.87-1.88 1.97-3.71 2.6-4.1 6.94-4.31zm-430 29.2v1h5v-1h-5zm15 0v1h8v-1h-8zm427 2c-2.66 2.66-2.83 4.76-3.69 8.43-0.34 1.44-0.69 2.88-1.04 4.31-0.19 0.82-0.39 1.63-0.59 2.47-1.38 5.63-2.85 11.2-4.31 16.8-0.3 1.17-0.6 2.33-0.91 3.53-4.05 15.6-4.05 15.6-6.03 20.3-1.06 2.76-1.68 5.25-2 8.19-0.41 3.69-1.24 6.39-2.43 9.88-1.08 3.51-2.1 7.03-3.13 10.6-0.27 0.93-0.55 1.87-0.84 2.83-0.39 1.35-0.39 1.35-0.79 2.74-0.24 0.81-0.48 1.63-0.72 2.47-0.55 2.53-0.61 4.81-0.52 7.4h-2c-0.17 0.77-0.34 1.55-0.52 2.35-1.31 5.85-2.73 11.6-4.42 17.4-1.48 5.07-2.77 10.2-3.94 15.3-2.51 11-5.75 21.8-8.91 32.6-2.88 9.88-5.69 19.7-7.92 29.8-0.64 2.87-1.34 5.66-2.28 8.44-1.5 4.55-2.47 9.21-3.51 13.9-0.68 2.99-1.35 5.81-2.5 8.65-1.78 4.5-2.53 9.3-3.5 14-0.17 0.78-0.33 1.55-0.5 2.36-0.15 0.7-0.29 1.4-0.44 2.12-0.61 2.19-1.54 4.01-2.56 6.03-1.53 5.63-2.74 11.3-4 17 19.3-0.5 19.3-0.5 39-1 0.74-3.18 1.48-6.35 2.25-9.63 1.5-6.36 3.07-12.7 4.94-18.9 1.51-5.13 2.51-10.2 3.31-15.5 1.16-6.88 2.9-13.5 5.5-20 0.35-1.33 0.66-2.66 0.93-4 0.8-3.74 1.63-7.47 2.5-11.2 1.04-4.46 2.02-8.92 2.95-13.4 1.5-7.02 3.22-14 4.99-20.9 2.41-9.52 4.71-19 6.85-28.6 1.79-7.98 3.68-15.9 5.58-23.9 0.79-3.28 1.56-6.56 2.33-9.85 0.18-0.77 0.36-1.53 0.54-2.32 0.33-1.41 0.66-2.83 0.98-4.24 0.71-3.03 1.47-6.02 2.34-9 1.17-4.19 2.03-8.4 2.88-12.7 1.16-5.63 2.41-11.2 4.06-16.7 2.7-9.04 4.6-18.3 6.49-27.5 0.39-1.86 0.82-3.72 1.28-5.56 0.21-0.89 0.42-1.78 0.63-2.7 0.2-0.79 0.4-1.58 0.61-2.4 0.27-2.16 0.27-2.16-1.19-3.81-2.73-1.98-5.81-2.3-9.06-2.84-4.75-0.83-9.13-1.9-13.7-3.43h-3zm-464 34-1 2c-0.77 0.45-1.53 0.91-2.31 1.37-4.57 2.77-7.12 6.01-9.69 10.6-0.57 0.92-0.57 0.92-1.16 1.86-3.28 5.47-5.1 10.9-6.88 17-3.02 9.71-3.02 9.71-6.68 12.3-3.1 1.04-5.53 0.72-8.78 0.39-13-1.5-13-1.5-25.5 1.38-1.16 0.51-2.31 1.03-3.5 1.56-5.28 3.09-8.61 8.75-10.5 14.4-0.66 10.7 0.19 21.2 4.28 31.1 0.98 2.52 1.55 5.09 2.17 7.72 0.71 2.78 1.66 5.47 2.58 8.18 2.23 6.81 4.26 13.7 6.34 20.5 1.41 4.64 2.83 9.28 4.25 13.9 0.91 3 1.81 6 2.7 9 0.43 1.41 0.85 2.83 1.28 4.24 0.37 1.24 0.73 2.48 1.11 3.75 2.74 7.54 6.93 12.4 12.8 17.8 14.1 15.1 17.1 36.9 16.5 56.7 4.44-0.05 8.87-0.15 13.3-0.25 1.26-0.02 2.53-0.03 3.83-0.05 1.2-0.03 2.41-0.06 3.66-0.09 1.11-0.02 2.23-0.05 3.38-0.07 2.92-0.28 2.92-0.28 4.65-2.45 1.18-2.11 1.94-4.03 2.6-6.34 1.01-3.24 2.2-6.18 3.76-9.19 1.96-3.19 1.96-3.19 1.81-5.56h2c2.31-3.22 2.31-3.22 3-7h2c0.53-0.68 1.07-1.36 1.62-2.07 5.43-6.71 11.3-10.9 19.4-13.9v-2c1.85-0.44 1.85-0.44 3.75-0.88 2.3-0.57 4.19-1.1 6.31-2.19 5.72-2.76 13-2.12 19.2-2.12 0.89-0.01 1.77-0.02 2.69-0.04 11-0.02 20.1 2.01 29.1 8.48 3.27 1.99 5.12 2.11 8.88 1.75 0.12-0.59 0.24-1.19 0.36-1.8 0.26-1.18 0.26-1.18 0.51-2.39 0.16-0.78 0.33-1.55 0.49-2.36 0.64-2.45 0.64-2.45 1.59-4.64 1.53-4.12 2.16-8.36 2.92-12.7 1.63-8.86 3.71-17.4 6.13-26.1 0.75-2.81 1.47-5.62 2.19-8.44 0.48-1.89 0.48-1.89 0.98-3.81 0.6-2.72 1.06-5.28 1.38-8.04 0.43-3.54 1.28-6.36 2.45-9.71 1.17-4.7 2.08-9.44 3-14.2 0.53-2.7 1.11-5.14 2-7.75 3.06-9.36 5.22-20.5 1.25-29.9-0.73-1.42-1.47-2.81-2.25-4.19-0.6-1.1-1.2-2.19-1.81-3.31-3.78-4.65-8.27-6.79-14.2-7.69-6.13-0.28-12-0.08-18 1-7.43 1.08-7.43 1.08-10.8-1.25-3.4-3.67-5.04-7.49-6.43-12.2-2.53-8.33-6.03-16.9-11.8-23.5h-2c-0.25-0.81-0.5-1.61-0.75-2.44-0.62-1.27-0.62-1.27-1.25-2.56-2.03-0.65-2.03-0.65-4-1l-1-3c-2.48-3.26-5.68-4.24-9.44-5.63-1.13-0.42-2.27-0.85-3.43-1.29-18-6.25-35.7-4.35-51.1 6.92zm-104 181c-3.57 12.6 1.14 25.9 7 37h2c0.22 0.74 0.44 1.47 0.67 2.24 1.65 3.42 3.48 4.76 6.58 6.95 0.93 0.67 1.86 1.34 2.83 2.04 4.38 2.65 7.79 3.77 12.9 3.77l1 2c7.13 1.45 13.9 1.27 21 0 0.63-16.8-0.9-30.8-12.6-43.9-2.08-1.8-4.11-3.5-6.37-5.06-0.72-0.52-1.45-1.03-2.19-1.57-7.22-3.68-14.9-3.7-22.9-3.56-0.96 0.01-1.92 0.02-2.91 0.03-2.34 0.02-4.68 0.06-7.02 0.1zm378 12.3c-4.92 6.17-7.51 13.2-9.75 20.7-0.36 1.08-0.71 2.16-1.08 3.28-1 4.03-1.12 7.51-1.05 11.6 0.01 0.69 0.02 1.37 0.03 2.08 0.02 1.66 0.06 3.32 0.1 4.99l7.56 0.06c0.7 0.01 1.41 0.02 2.13 0.03 11.8 0.05 22.8-2.92 32.3-10.1v-2c0.99-0.33 1.98-0.66 3-1 1.22-2.51 1.22-2.51 2-5h2c6.33-9.46 10.1-22.6 8-34-0.94-1.93-0.94-1.93-3-3-2.71-0.34-5.11-0.48-7.81-0.44-0.76 0.01-1.51 0.01-2.29 0.02-12 0.34-23.8 3.66-32.2 12.7zm-212-11.3v1h5v-1h-5zm15 0v1h6v-1h-6zm102 0 4 1zm6 0v1h6v-1h-6zm-23 31c-1.43 0.77-1.43 0.77-2.88 1.56-0.7 0.47-1.4 0.95-2.12 1.44v2c-0.9 0.39-0.9 0.39-1.81 0.78-2.36 1.31-3.58 2.57-5.26 4.65-1.46 1.8-2.89 3.52-4.54 5.15-1.62 1.65-2.45 3.32-3.39 5.42 5.34 1.78 11.1 1.4 16.7 1.56 1.02 0.03 1.02 0.03 2.07 0.06 12.7 0.38 25.4 0.49 38.1 0.5 1.34 0.01 1.34 0.01 2.7 0.01 2.54 0.01 5.07 0 7.61 0 1.14 0 1.14 0 2.31 0.01 3.88 0.05 3.88 0.05 7.51-1.14-0.36-7.21-4.83-11.5-9.31-16.7-6.16-5.29-12.7-7.86-20.5-9.73-2.19-0.58-2.19-0.58-3.19-1.58-8.28-0.45-16.9 1.82-24 6zm-88-6-2 1c-1.69 0.13-3.38 0.23-5.07 0.31-5.62 0.45-9.98 2.06-14.9 4.69v2c-0.73 0.24-1.46 0.47-2.21 0.72-3.2 1.47-4.99 3.18-7.42 5.71-1.13 1.18-1.13 1.18-2.29 2.38-0.68 0.72-1.37 1.44-2.08 2.19-0.57 0.46-1.13 0.93-1.71 1.41-1.87 2.04-1.87 2.04-2.29 7.59h76c-1.62-9.7-8.18-16.3-16-22-5.04-2.76-10-3.69-15.6-4.57-2.35-0.43-2.35-0.43-4.35-1.43zm433 29 4 1zm-664 27c-2.84 8.5-0.29 16.4 3.56 24.1 0.47 0.94 0.95 1.89 1.44 2.86 17.2 0.94 34.3 1.12 51.5 1.07 3.58-0.01 7.16-0.02 10.7-0.02 9.02-0.01 18-0.03 27.1-0.05 9.82-0.02 19.6-0.05 29.5-0.06 4.24 0 8.48-0.01 12.7-0.02 3.23-0.01 6.47-0.02 9.7-0.02 1.76-0.01 1.76-0.01 3.55-0.02h3.23 2.81c2.21 0.12 2.21 0.12 4.21 1.12l1 25h-148c0 5.33 0.02 5.29 3 9 1.61 3.36 3.1 6.78 4.6 10.2 1.1 2.9 1.1 2.9 3.4 3.8 0.93 1.6 0.93 1.6 1.87 3.62 2.97 7.2 2.97 7.2 8.13 12.4 0.9 1.59 1.79 3.18 2.68 4.78 4.53 7.63 10.2 14.4 16.2 20.9 1.91 2.07 3.75 4.18 5.58 6.33 4.27 4.88 8.73 9.68 13.6 14h2l2 4h2c0.23 0.57 0.47 1.14 0.71 1.73 1.59 2.8 3.49 4.47 5.91 6.58 0.9 0.78 1.79 1.57 2.71 2.38 1.32 1.14 1.32 1.14 2.67 2.31 0.74 0.66 1.49 1.32 2.26 2 1.9 1.68 3.82 3.34 5.74 5 1.39 1.2 1.39 1.2 2.81 2.43 2.15 1.86 2.15 1.86 5.19 1.57v2c4.24 3.9 8.97 7.11 14 9.83 3.66 2.18 7 4.81 10.4 7.36 4.81 3.41 8.54 4.2 14.4 4.43 0.86 0.04 1.72 0.07 2.6 0.11 15 0.57 30 0.37 45 0.34 4.59-0.01 9.18-0.02 13.8-0.02 11.6-0.01 23.2-0.03 34.8-0.05 12.6-0.02 25.2-0.05 37.8-0.06 5.45 0 10.9-0.01 16.4-0.02 3.38-0.01 6.75-0.02 10.1-0.02 1.57 0 3.14 0 4.7-0.01 2.14-0.01 4.27-0.01 6.41-0.01h3.62c2.91 0.12 2.91 0.12 5.91 1.12l-1 3c-0.08 1.62-0.11 3.26-0.1 4.88 0 1.41 0 1.41 0.01 2.85 0.01 0.97 0.02 1.95 0.02 2.96 0.01 1.48 0.01 1.48 0.02 2.99 0.01 2.44 0.03 4.88 0.05 7.32-0.68 0-1.36 0-2.06-0.01-16.5-0.02-33-0.03-49.5-0.04-7.98-0.01-16-0.02-23.9-0.03-6.94-0.01-13.9-0.01-20.8-0.02-3.68 0-7.36 0-11-0.01-4.1-0.01-8.2-0.01-12.3-0.01-1.23 0-2.45 0-3.72-0.01-1.67 0.01-1.67 0.01-3.37 0.01-1.46 0-1.46 0-2.94-0.01-2.34-0.02-2.34-0.02-4.31 1.13-3.04 0.07-6.06 0.09-9.1 0.06-0.9 0-1.8-0.01-2.73-0.01-3.87-0.02-7.74-0.05-11.6-0.07-2.83-0.02-5.65-0.03-8.47-0.05-0.88 0-1.76-0.01-2.67-0.02-4.35-0.16-4.35-0.16-8.42 1.09-0.03 4.14-0.05 8.29-0.07 12.4 0 1.19-0.01 2.37-0.02 3.59 0 1.13-0.01 2.25-0.01 3.41-0.01 1.04-0.01 2.09-0.02 3.16-0.16 2.36-0.16 2.36 1.12 3.41 1.66 0.1 3.33 0.14 4.99 0.15 1.09 0.01 2.17 0.02 3.29 0.02 1.79 0.01 1.79 0.01 3.63 0.02 1.25 0.01 2.5 0.01 3.79 0.02 2.74 0.02 5.47 0.04 8.2 0.05 4.32 0.02 8.64 0.05 13 0.07 9.17 0.06 18.3 0.12 27.5 0.17 9.9 0.05 19.8 0.11 29.7 0.18 4.3 0.02 8.59 0.05 12.9 0.07 2.02 0.01 4.05 0.02 6.08 0.03 2.48 0.02 4.95 0.03 7.43 0.04 1.09 0.01 2.18 0.02 3.3 0.03 0.94 0 1.89 0.01 2.87 0.01 2.38 0.14 2.38 0.14 5.38 1.14 2.58 0.08 5.14 0.1 7.72 0.08 1.2-0.01 1.2-0.01 2.41-0.01 2.68-0.01 5.35-0.03 8.02-0.05 1.92-0.01 3.83-0.02 5.74-0.03l15.6-0.09c5.46-0.04 10.9-0.07 16.4-0.1 10.4-0.05 20.7-0.11 31.1-0.18 12.9-0.07 25.8-0.15 38.6-0.22 4.53-0.02 9.05-0.05 13.6-0.07 1.1-0.01 2.2-0.02 3.33-0.02 7.53-0.05 15.1-0.09 22.6-0.13l9.06-0.06c1.87-0.01 3.73-0.02 5.6-0.03 2.57-0.02 5.15-0.03 7.72-0.05 0.81 0 1.61-0.01 2.44-0.01 3.96-0.03 7.91-0.03 11.9 0 0.77 0 1.54 0 2.33 0.01 1.44 0.01 2.88 0.02 4.31 0.04 3.97 0.02 7.67-0.32 11.6-1.08 0.06-4.11 0.09-8.21 0.12-12.3 0.02-1.17 0.04-2.34 0.05-3.54 0.01-1.12 0.02-2.24 0.02-3.39 0.01-1.03 0.02-2.06 0.03-3.13-0.03-2.86-0.03-2.86-2.22-5.63-2.7-0.44-2.7-0.44-5.85-0.33-1.16 0-2.32 0.01-3.52 0.02-1.22 0.02-2.44 0.04-3.7 0.06-1.22 0-2.44 0.01-3.7 0.01-5.49-0.48-5.49-0.48-10.2 1.24-8.3 0.38-17 0.65-25-2-0.16-7.69 0.06-15.4 1-23 1-1 1-1 3.51-1.11 1.68 0 1.68 0 3.39 0.01 1.27 0.01 2.53 0.01 3.84 0.01 0.68 0 1.36 0.01 2.06 0.01 3.62 0.01 7.24-0.01 10.8-0.02 4.6-0.02 9.2-0.03 13.8 0 3.72 0.02 7.43 0.01 11.2-0.03 1.41 0 2.82 0 4.23 0.02 10.1 0.13 16.2-1.64 24.2-7.89 1.49-1.08 2.97-2.16 4.47-3.24 1.34-1.02 2.69-2.05 4.03-3.07 1.36-1.04 2.73-2.08 4.09-3.12 0.59-0.45 1.17-0.89 1.77-1.35 1.51-1.13 3.07-2.18 4.64-3.22v-2c0.81-0.37 0.81-0.37 1.64-0.75 2.89-1.53 5.46-3.34 8.11-5.25 1.47-1.05 1.47-1.05 2.98-2.13 0.75-0.62 1.5-1.23 2.27-1.87v-2c0.99-0.33 1.98-0.66 3-1v-2c0.53-0.23 1.07-0.46 1.62-0.69 3.2-1.77 5.67-3.85 8.38-6.31v-2c0.62-0.25 1.23-0.5 1.87-0.75 2.26-1.07 2.26-1.07 3.13-3.25 1.26-2.53 2.53-2.77 5-4 0.68-1.33 1.35-2.66 2-4 0.99-0.33 1.98-0.66 3-1v-2c0.99-0.33 1.98-0.66 3-1 2.41-2.64 2.41-2.64 3-6 1.48-0.5 1.48-0.5 3-1v-2h2c1.28-1.34 1.28-1.34 2.54-3.12 0.49-0.66 0.98-1.33 1.49-2.01 0.53-0.72 1.05-1.44 1.59-2.18s1.09-1.48 1.64-2.24c1.09-1.48 2.18-2.96 3.26-4.44 1.2-1.64 2.43-3.25 3.66-4.86 5.98-7.85 10.8-16.4 15.6-25 1.14-2.01 2.29-4.01 3.44-6.01 4.03-6.66 4.03-6.66 3.79-14.2-92.7-0.33-185-0.66-281-1-1.25-2.49-1.13-4.19-1.14-6.98v-2.97c0-1.03 0.01-2.06 0.01-3.12 0-1.03-0.01-2.06-0.01-3.12v-2.97c0.01-0.91 0.01-1.81 0.01-2.74 0.13-2.1 0.13-2.1 1.13-3.1 1.55-0.1 3.11-0.14 4.67-0.14 1.52-0.01 1.52-0.01 3.07-0.02h3.43c1.18-0.01 2.37-0.01 3.6-0.02 3.31-0.01 6.63-0.02 9.95-0.02 3.57-0.01 7.14-0.02 10.7-0.04 6.19-0.02 12.4-0.04 18.6-0.05 8.95-0.03 17.9-0.05 26.8-0.08 14.5-0.05 29-0.09 43.6-0.14 14.1-0.03 28.2-0.08 42.3-0.12 0.87 0 1.74-0.01 2.64-0.01 4.36-0.01 8.72-0.03 13.1-0.04 36.2-0.11 72.4-0.22 109-0.32 0.48-1.26 0.96-2.51 1.44-3.77 0.26-0.7 0.53-1.4 0.81-2.12 1.09-3.07 1.81-6.18 2.5-9.36 0.39-1.77 0.39-1.77 0.79-3.58 0.42-2.88 0.59-4.53-0.54-7.17-2.28-1.14-3.61-1.15-6.15-1.21-0.86-0.02-1.73-0.03-2.62-0.05-0.96-0.02-1.91-0.04-2.89-0.05-1.49-0.04-1.49-0.04-3.02-0.07-3.31-0.06-6.62-0.12-9.93-0.18-1.15-0.02-2.29-0.04-3.47-0.06-23.3-0.43-46.6-0.53-69.9-0.51-5.64 0-11.3 0-16.9-0.01h-33-27-3.93-7.92c-23.9 0-47.9 0-71.8 0.01h-64.6c-24.5-0.01-48.9-0.01-73.4-0.01h-7.95-3.94-26.7c-71.6-0.02-143 0.4-215 1.14zm474 245 4 1z" fill="#F9FAFB"/>
<path transform="translate(588,259)" d="m0 0v2c1.24 0.12 2.48 0.25 3.75 0.38 3.11 0.39 5.61 0.82 8.25 2.62l1 2c0.99 0.52 1.98 1.03 3 1.56 5.28 2.9 11.8 7.87 13.8 13.7 0.12 0.85 0.12 0.85 0.24 1.72h2c0.79 2.19 1.59 4.37 2.38 6.56 0.44 1.22 0.88 2.44 1.33 3.69 0.43 1.24 0.85 2.48 1.29 3.75 0.38 1.09 0.76 2.18 1.14 3.3 1.12 4.82 1.2 9.39 1.17 14.3 0 0.98-0.01 1.96-0.01 2.96-0.18 11.3-2.71 21.1-7.3 31.4-0.38 0.86-0.76 1.73-1.14 2.62-0.94 2.13-1.9 4.26-2.86 6.38h-2c-0.26 0.72-0.52 1.43-0.78 2.17-1.29 3-2.85 5.47-4.72 8.14-0.61 0.89-1.22 1.77-1.84 2.68-0.55 0.66-1.1 1.33-1.66 2.01h-2c-0.25 0.59-0.5 1.19-0.76 1.8-2.55 4.53-7.32 7.64-12.2 9.08-0.66 0.04-1.32 0.08-2 0.12v2c-3.66 1.35-7.33 2.68-11 4-0.79 0.28-1.57 0.57-2.38 0.86-4.72 1.65-9.38 2.77-14.3 3.67-2.51 0.46-2.51 0.46-5.63 1.53-4.3 1.09-8.41 1.37-12.8 1.6-3.66 0.26-3.66 0.26-6.4 0.8-10.1 1.83-20 1.85-30.2 1.84-1.87 0-3.75 0.01-5.62 0.01-3.91 0.01-7.81 0.01-11.7 0.01-5-0.01-10 0.01-15 0.03-3.86 0.01-7.72 0.02-11.6 0.01-1.84 0-3.68 0.01-5.53 0.02-2.57 0.01-5.14 0-7.71-0.01-0.75 0.01-1.51 0.02-2.29 0.03-4.48-0.05-7.3-0.66-10.9-3.4-2.3-2.54-3.82-4.5-4.23-7.97 0.31-6.12 2.97-11 5.85-16.3 1.43-2.54 1.43-2.54 1.88-4.87 0.5-1.83 0.5-1.83 1.83-3.11 2.1-2.16 3.38-4.46 4.87-7.08 0.92-1.6 0.92-1.6 1.86-3.24 0.64-1.12 1.28-2.24 1.94-3.4 2.59-4.43 5.2-8.84 7.81-13.2 0.67-1.14 1.34-2.28 2.02-3.45 0.64-1.07 1.28-2.15 1.94-3.25 0.57-0.97 1.15-1.95 1.74-2.95 0.49-0.69 0.98-1.38 1.49-2.1h2l2-6h2v-3h2c0.34-1.04 0.34-1.04 0.7-2.1 1.58-3.52 3.77-6.35 6.18-9.34 3.24-4.08 6.24-8.21 9.12-12.6 1.31-1.36 2.65-2.69 4-4 0.99-1.14 1.97-2.28 2.94-3.44 6.98-8.2 6.98-8.2 11.1-9.56 1.36-1.31 2.69-2.65 4-4 5.41-4.69 11.5-7.16 18-10 0.84-0.4 1.68-0.79 2.54-1.2 14.2-6.37 43-9.05 57.5-1.8zm-48.9 28c-1.1 0.33-2.2 0.66-3.34 1-2.82 0.82-2.82 0.82-4.72 3-1.01 0.31-2.02 0.62-3.06 0.94-0.97 0.35-1.94 0.7-2.94 1.06l-1 3c1.27 0.51 2.54 1 3.81 1.5 0.71 0.28 1.42 0.56 2.15 0.84 2.16 0.81 2.16 0.81 5.04 0.66v2c0.89 0.13 1.78 0.27 2.7 0.4 1.76 0.27 1.76 0.27 3.55 0.54 1.74 0.26 1.74 0.26 3.52 0.52 3.23 0.54 3.23 0.54 5.41 1.09 8.21 2.03 14.3-0.98 21.3-5.11 2.01-1.17 2.01-1.17 3.56-2.44v-2c0.8-0.27 1.61-0.54 2.44-0.81 0.84-0.39 1.69-0.79 2.56-1.19l1-3h3c-0.64-3.06-0.64-3.06-2.73-3.94-5.71-1.86-10.8-2.49-16.8-2.37-1.19-0.01-1.19-0.01-2.39-0.01-8.05 0.07-15.4 1.99-23 4.32zm55.9 28v2c-0.76 0.14-1.53 0.29-2.31 0.44-2.77 0.52-2.77 0.52-5.69 1.56v2c-0.78 0.21-1.57 0.41-2.38 0.62-6 2.28-11.3 5.83-16.6 9.38-1.18 6.02-1.12 12.1-1.19 18.2-0.01 0.78-0.02 1.56-0.04 2.37 0 4.25 0.26 7.5 2.23 11.4 6.15-0.13 8.99-2.21 13.5-6.31 1.72-1.56 1.72-1.56 1.5-3.69h2c9.53-10.2 12.3-24.8 15-38-3.05-1.01-3.05-1.01-6 0zm-99 13-1 3-3 2c-0.69 1.66-1.36 3.32-2 5l-2 1c-1.25 2.92-1.25 2.92-2 6l1 2c4.5-1.54 8.18-4.01 12.1-6.69 6.49-4.41 13.1-8.46 19.9-12.3-0.5-2.48-0.5-2.48-1-5-9.71-2.73-15.5-3.62-22 5zm37.1 22.8c-1.05 1.08-1.05 1.08-2.13 2.19-1.98 1.09-4.01 2.11-6.06 3.06-3.61 1.68-6.19 3.1-8.94 5.94-1.98 1.03-1.98 1.03-4.19 1.94-3.1 1.33-6.2 2.66-9.25 4.12-0.64 0.3-1.27 0.6-1.93 0.91-1.96 1.08-1.96 1.08-3.63 4.03 5.84 0.09 11.6 0.11 17.4-0.5 5.19-0.54 10.3-0.54 15.5-0.44 3.55 0 3.55 0 9.04-1.06v-22c-3.95-0.46-3.95-0.46-5.87 1.81z" fill="#FAFBFC"/>
<path transform="translate(174 1094)" d="m0 0c0.77-0 1.54-0.01 2.34-0.01 2.55-0.01 5.11-0.01 7.67-0.01 1.78-0.01 3.55-0.01 5.33-0.01 3.73-0.01 7.46-0.01 11.2-0.01 4.77 0 9.54-0.01 14.3-0.03 3.67-0.01 7.35-0.01 11-0.01 1.76 0 3.52-0.01 5.28-0.02 2.46-0.01 4.93 0 7.39 0 0.72 0 1.45-0.01 2.19-0.01 4.32 0.02 7.78 0.69 11.8 2.26 1.79 0.54 3.59 1.09 5.38 1.62 0.87 0.26 1.75 0.52 2.65 0.79 0.98 0.29 0.98 0.29 1.97 0.59v2c1.51 0.11 1.51 0.11 3.04 0.22 4.5 0.64 7.69 2.7 11.4 5.21 0.64 0.41 1.27 0.82 1.93 1.24 1.59 1.04 3.12 2.18 4.63 3.33v2c0.56 0.24 1.12 0.49 1.69 0.75 5.78 3.12 11.2 7.91 13.3 14.2 0.45 0.4 0.89 0.81 1.34 1.23 2.47 2.62 3.75 5.78 5.23 9.02 0.3 0.64 0.6 1.28 0.92 1.94 7.1 15.4 7.72 33.2 5.51 49.8l-1 1c-0.22 1.72-0.42 3.45-0.62 5.18-1.61 10.1-6.65 19.3-13.1 27.2-1.5 1.8-1.5 1.8-3.07 4.66-5.68 7.58-14.2 13.3-23.2 16v2c-1.87 0.65-3.74 1.29-5.62 1.93-1.57 0.54-1.57 0.54-3.16 1.09-3.09 0.94-6.04 1.46-9.22 1.98-0.85 0.17-1.71 0.34-2.6 0.52-8.9 1.72-17.7 1.77-26.7 1.74-1.64 0-3.28 0-4.92 0.01-3.4 0-6.8 0-10.2-0.01-4.36-0.02-8.73-0.01-13.1 0-3.37 0.01-6.73 0.01-10.1 0-1.61 0-3.22 0-4.84 0.01-2.24 0-4.48 0-6.72-0.02h-3.86c-2.97-0.25-2.97-0.25-4.97-2.25-0.24-2.69-0.24-2.69-0.24-6.17v-3.98c0-1.47 0.01-2.94 0.02-4.4v-4.61c0-4.19 0.01-8.37 0.02-12.6 0.01-4.37 0.02-8.73 0.02-13.1 0-8.27 0.02-16.6 0.04-24.8 0.02-9.42 0.03-18.8 0.04-28.2 0.02-19.4 0.06-38.8 0.1-58.1 3.03-1.52 6.16-1.15 9.48-1.15zm28.5 34.2c-1.15 4.15-1.13 8.15-1.11 12.4v2.57c0 2.8 0.01 5.6 0.02 8.41v5.83c0 5.12 0.01 10.2 0.03 15.4 0.01 5.22 0.01 10.4 0.02 15.7 0.01 10.2 0.02 20.5 0.04 30.7 8.65 4.32 21.8 1.76 30.9 0.81 1.16-0.12 2.32-0.23 3.52-0.35 12-1.38 21-6.26 29.3-15.4 2.43-3.22 3.92-6.07 4.28-10.1h2c1.32-8.7 2.57-17.2 2-26-0.05-0.95-0.11-1.89-0.17-2.86-1.04-9.43-5.66-19.7-12.8-26.1-0.53-0.62-1.07-1.24-1.62-1.88-11.4-10.2-25.2-9.4-39.5-9.25l-4.92 0.03c-3.99 0.02-7.97 0.05-12 0.1z" fill="#FAFBFC"/>
<path transform="translate(625 1094)" d="m0 0c1.17-0 1.17-0 2.36-0.01 2.57 0 5.15 0 7.73 0.01 1.78-0 3.57-0.01 5.35-0.01 3.75 0 7.5 0 11.2 0.01h14.4c3.69-0.01 7.38-0.01 11.1-0 1.78-0 3.55-0 5.32-0.01 2.48 0 4.96 0 7.43 0.01 0.74-0 1.48-0 2.24-0.01 5.07 0.03 5.07 0.03 7.3 1.14 2.5 0.69 4.99 1.35 7.5 2 4.84 1.25 9.04 2.77 13.5 5v2c0.77 0.15 0.77 0.15 1.56 0.31 4.59 1.29 9.51 2.72 12.4 6.69v2c0.56 0.23 1.12 0.45 1.7 0.69 8.06 4.59 14.2 14.2 18.3 22.3 0.81 1.55 0.81 1.55 1.63 3.14 8.63 18.2 8.92 42.3 3.3 61.5-2.39 6.43-5.32 12.5-8.93 18.3-0.49 0.79-0.97 1.59-1.47 2.41-2.78 4.37-5.33 7.49-9.53 10.6-0.62 0.82-1.24 1.65-1.87 2.5-2.75 3.23-5.34 4.61-9.13 6.5h-2v2c-13.1 6.52-13.1 6.52-20.3 7.59-1.82 0.27-3.63 0.58-5.44 0.91-9.17 1.61-18.2 1.81-27.4 1.8-1.61 0-3.22 0.01-4.84 0.01-3.35 0.01-6.7 0.01-10 0.01-4.3-0.01-8.6 0.01-12.9 0.03-3.32 0.01-6.64 0.02-9.96 0.01-1.58 0-3.17 0.01-4.76 0.02-2.2 0.01-4.4 0-6.61-0.01h-3.79c-0.97-0.12-1.93-0.24-2.93-0.37-2.37-3.55-2.25-5.03-2.24-9.25 0-1.3-0.01-2.61-0.01-3.96 0.01-1.45 0.02-2.91 0.02-4.36v-4.58c0-4.15 0.01-8.3 0.03-12.4 0.01-4.34 0.01-8.68 0.01-13 0.01-8.22 0.03-16.4 0.05-24.6 0.02-9.35 0.03-18.7 0.04-28 0.02-19.2 0.06-38.5 0.1-57.7 3.04-1.52 6.2-1.14 9.54-1.13zm27.5 35.1v91c32.9 1.53 32.9 1.53 61-12 3.32-3.47 3.32-3.47 4-8h2c3.07-4.02 3.9-8.3 4.69-13.2 0.12-0.76 0.25-1.52 0.38-2.3 2.16-13.8 0.94-26.8-6.67-38.8-0.46-0.55-0.92-1.11-1.4-1.69h-2c-0.15-0.9-0.15-0.9-0.31-1.81-0.8-2.53-1.64-3.54-3.69-5.19-0.99-0.33-1.98-0.66-3-1-0.47-0.47-0.94-0.94-1.42-1.43-1.82-1.81-3.49-2.66-5.83-3.7-0.73-0.33-1.45-0.66-2.2-1-5.83-1.99-12.1-2.11-18.2-2.43-1.18-0.06-1.18-0.06-2.38-0.13-12.8-0.98-12.8-0.98-25 1.69z" fill="#FAFBFC"/>
<path transform="translate(1093,1132)" d="m0 0v2c1.1-0.07 1.1-0.07 2.23-0.14 3.05 0.15 4.53 0.79 7.15 2.33 0.77 0.45 1.54 0.9 2.34 1.36 2.11 1.34 4.1 2.76 6.09 4.26 3.1 2.57 3.1 2.57 7.19 2.19 0.03-0.63 0.05-1.25 0.08-1.9 0.08-1.22 0.08-1.22 0.17-2.48 0.05-0.81 0.09-1.62 0.14-2.46 0.61-2.16 0.61-2.16 2.34-3.28 2.54-0.99 4.43-1.14 7.15-1.15h2.79c0.95 0 1.91 0.01 2.89 0.02 1.44-0.01 1.44-0.01 2.91-0.02h2.78c1.26 0.01 1.26 0.01 2.55 0.01 2.2 0.26 2.2 0.26 5.2 2.26 0.37 1.89 0.37 1.89 0.37 4.23 0.01 0.89 0.02 1.78 0.03 2.69-0.01 0.98-0.02 1.96-0.03 2.96 0.01 1.03 0.01 2.06 0.01 3.12 0.01 3.42 0 6.84-0.02 10.3v7.16c0 5.03-0.01 10-0.02 15.1-0.03 6.39-0.03 12.8-0.02 19.2 0 4.95 0 9.9-0.01 14.8-0.01 2.35-0.01 4.7-0.01 7.05 0 11.5-0.15 23-1.07 34.4-0.06 0.86-0.12 1.73-0.18 2.62-1.16 12.6-7.35 22.4-16 31.4-3.61 3-3.61 3-6 3v2c-4.57 2.92-8.36 4.49-13.7 5.5-3.13 0.67-6.08 1.72-9.09 2.82-16.4 5.01-36.7 2.17-51.7-5.59-2.2-1.21-4.38-2.46-6.55-3.73-0.91-0.49-1.82-0.99-2.75-1.5-2.82-1.88-5.02-3.95-7.25-6.5v-3h-3c-1.18-2.35-2.35-4.7-3.5-7.06-0.33-0.66-0.67-1.32-1.01-1.99-2.21-4.58-2.86-7.87-2.49-13 5.41-1.8 11.2-1.52 16.9-1.75 1.28-0.07 2.56-0.14 3.87-0.21 1.24-0.05 2.47-0.1 3.74-0.15 1.13-0.05 2.26-0.1 3.42-0.15 3.53 0.3 5.29 1.12 8.09 3.26 3 5.07 3 5.07 3 8 1.08 0.43 1.08 0.43 2.19 0.88 1.67 0.66 3.33 1.36 4.97 2.11 8.17 2.91 19 4.5 27.1 0.94 0.57-0.31 1.14-0.61 1.73-0.93 0.99-0.52 1.98-1.03 3-1.56 2.12-1.29 2.12-1.29 3-3.44h2c3.95-9.12 5.46-17 5-27h-3v2c-17.9 7.35-37.2 10.4-56 4-2.81-1.42-5.41-2.93-8.01-4.7-2.05-1.46-2.05-1.46-4.99-2.3l-2-3c-1.08-0.56-1.08-0.56-2.19-1.12-9.63-6.42-15-18.9-17.3-29.9-2.7-18.3-0.93-36.4 9.49-52h2l1-4h2l1-3h2l1-3c16.3-13.3 36.9-16.4 57-12zm-28 32c-0.66 0.45-1.31 0.89-1.99 1.35-5.6 4.3-9.78 10.6-11 17.6-0.7 10.3-0.92 19.8 5.8 28.3 5.03 5.4 9.95 8.22 17.2 9.72 0.61 0.17 1.23 0.33 1.86 0.5 7.89 1.83 15 0 22.1-3.5 5.31-3.41 8.21-7.42 11-13 0.35-0.6 0.7-1.2 1.06-1.82 2.73-6.36 2.62-15.6 0.94-22.2-1.99-4.89-4.48-9.05-8-13-0.72-0.85-1.44-1.69-2.19-2.56-7.06-6.12-13.9-7.16-23.2-6.89-5.36 0.66-9.24 2.41-13.7 5.45z" fill="#F7F8F9"/>
<path transform="translate(689 332)" d="m0 0c1.59-0.02 1.59-0.02 3.22-0.04h3.09c0.93-0.01 1.87-0.01 2.83-0.02 2.42 0.25 2.42 0.25 5.42 2.25 0.49 2.4 0.49 2.4 0.75 5.37 0.88 6.39 3.33 10.8 6.79 16.2 1.46 2.4 1.46 2.4 1.46 4.4 0.57 0.25 1.14 0.51 1.73 0.77 2.5 1.35 4.43 2.95 6.59 4.79 3.91 3.06 6.54 4.72 11.7 4.44 2.04-0.86 3.92-1.87 5.84-2.94 8.99-4.41 19.8-3.83 29.4-1.7 1.81 0.64 1.81 0.64 3.81 2.64 1.84 0.6 1.84 0.6 3.88 1 5.66 1.32 5.66 1.32 8.12 3l1 3c1.32 0.39 2.66 0.71 4 1 3.8 1.77 7.53 3.65 11 6v2c1.98 0.49 1.98 0.49 4 1v2c0.58 0.27 1.16 0.53 1.75 0.81 2.31 1.22 4.27 2.49 6.25 4.19v2c0.57 0.25 1.15 0.49 1.74 0.75 2.61 1.44 4.41 3.13 6.51 5.25 0.71 0.7 1.42 1.4 2.14 2.12 1.61 1.88 1.61 1.88 1.61 3.88h2c4.59 4.32 8.34 9.64 12.2 14.6 0.42 0.54 0.83 1.08 1.26 1.63 2.02 2.64 3.91 5.3 5.73 8.08 1.55 2.73 1.55 2.73 3.82 3.67 1.02 1.66 2.01 3.32 3 5 0.72 0.88 1.45 1.77 2.19 2.69 1.81 2.31 1.81 2.31 1.81 4.31h2c1.48 1.86 1.48 1.86 3.06 4.31 0.53 0.8 1.06 1.6 1.6 2.43 1.34 2.26 1.34 2.26 2.34 5.26h2c1.26 1.61 1.26 1.61 2.69 3.87 1.66 2.63 3.3 5.12 5.26 7.53 5.2 6.51 5.94 11.4 5.05 19.6h-2l-2 4h-2l-1 3c-10.8 0.35-21.3-0.68-32-2-1.83-0.22-1.83-0.22-3.69-0.44-3.31-0.56-3.31-0.56-6.17-1.57-4.11-1.3-8.11-1.58-12.4-1.93-5.98-0.56-11.5-1.28-17.2-3.28-4.18-1.26-8.5-1.92-12.8-2.6-4.71-0.81-8.49-2.23-12.8-4.18-1.3-0.42-2.62-0.82-3.94-1.19-11.8-3.86-22.3-10.2-32.1-17.8-0.72-0.52-1.45-1.03-2.2-1.56-4.28-3.02-7.67-6.29-11-10.3-1.2-1.43-2.45-2.82-3.75-4.17-7.88-8.27-13.1-17.6-15-28.9-0.49-0.5-0.49-0.5-1-1-0.12-1.94-0.17-3.88-0.18-5.81-0.02-1.06-0.03-2.12-0.05-3.21 0.23-2.95 0.81-4.45 2.23-6.98 0.46-3.56 0.4-5.36-1.5-8.44-4.12-4.23-8.52-8.08-13.2-11.6-2.72-2.34-4.43-4.84-6.25-7.93v-2h-2c-3.58-6.98-6.46-13.8-8.37-21.4-0.17-0.65-0.34-1.3-0.51-1.98-1.01-4.28-1.26-8.25-1.12-12.6 3.99-2 9.05-1.19 13.4-1.19zm-6.44 1.19v1h11v-1h-11zm57.2 63.2c-4.02 3.31-5.81 6.73-6.43 11.9 0.21 7.09 4.15 13.3 8.25 18.9h2c0.25 0.57 0.5 1.15 0.75 1.75 1.44 2.58 3.04 4.31 5.25 6.25h2v2c3.22 2.31 3.22 2.31 7 3l1 3c0.81 0.27 1.61 0.53 2.44 0.81 4.2 1.4 7.56 3.5 11.3 5.85 2.61 1.54 5.21 2.32 8.09 3.24 1.05 0.34 2.1 0.68 3.18 1.03 1.05 0.34 2.11 0.68 3.19 1.03 2.81 1.04 2.81 1.04 5.81 3.04 2.11 0.26 4.21 0.52 6.32 0.72 5.55 0.58 11.2 1.38 16.6 2.78 3.39 0.82 6.86 1.15 10.3 1.56 0.75 0.09 1.49 0.18 2.26 0.28l5.49 0.66c-1.3-3.7-2.86-6.33-5.37-9.31-3.8-4.62-7.42-9.34-11-14.1-0.53-0.7-1.05-1.4-1.59-2.12-2.08-2.78-4.11-5.55-6.04-8.44h-2c-0.29-0.6-0.57-1.2-0.87-1.81-1.17-2.39-1.17-2.39-3.13-5.19h-2c-0.31-0.81-0.31-0.81-0.62-1.63-1.91-3.29-4.43-5.97-7.38-8.37h-2c-0.24-0.6-0.49-1.2-0.75-1.81-1.44-2.53-2.77-3.69-5.25-5.19h-3c-0.49-1.49-0.49-1.49-1-3-5.11-4.04-11-6.49-17-9-0.79-0.34-1.58-0.68-2.39-1.02-8.81-3.38-15.6-1.91-23.4 3.22z" fill="#FAFBFC"/>
<path transform="translate(1178 1084)" d="m0 0c0.65-0 1.3-0 1.98-0.01 1.37 0 2.75 0.01 4.13 0.01 2.1 0.02 4.2 0 6.31-0.01 1.34 0 2.68 0.01 4.02 0.01 1.21 0 2.43 0 3.68 0.01 3.17 0.26 3.17 0.26 7.17 2.26v53c4.77-0.8 6.97-1.31 11-3.38 12.5-5.78 26.9-7.76 40.2-3.64 2.73 1.19 5.25 2.52 7.83 4.02 0.9 0.49 1.81 0.98 2.75 1.48 4.79 2.7 7.94 5.05 11.2 9.52 0.67 0.87 1.34 1.75 2.03 2.65 0.67 0.94 1.34 1.88 2.03 2.85 0.67 0.91 1.34 1.83 2.03 2.78 6.12 10.5 5.37 23.7 5.42 35.5 0.01 1.77 0.03 3.55 0.05 5.32 0.05 4.63 0.08 9.26 0.1 13.9 0.04 5.58 0.1 11.2 0.15 16.7 0.08 8.43 0.13 16.9 0.19 25.3h-36c-0.03-4.77-0.06-9.54-0.08-14.5-0.03-3.04-0.05-6.09-0.09-9.13-0.04-4.82-0.09-9.64-0.11-14.5-0.01-3.89-0.05-7.78-0.09-11.7-0.02-1.47-0.03-2.95-0.03-4.42-0.01-9.28-1.05-17.2-4.6-25.9-0.34-0.92-0.67-1.83-1.01-2.77-0.78-2.39-0.78-2.39-2.99-3.23-0.62-0.66-1.24-1.32-1.88-2-3.82-3.6-7.98-3.19-13.1-3.25-1.21-0.03-2.41-0.06-3.65-0.08-5.13 0.49-8.27 3.02-12.1 6.26-0.58 0.49-1.17 0.97-1.76 1.47-1.69 1.74-2.59 3.39-3.55 5.6h-2c-0.73 8.68-1.27 17.4-1.57 26.1-0.06 1.81-0.06 1.81-0.13 3.67-0.5 16.1-0.39 32.2-0.3 48.3-3.07 1.53-6.28 1.12-9.64 1.09h-2.28c-2.4-0.01-4.81-0.02-7.21-0.03-1.63-0.01-3.26-0.01-4.89-0.02-3.99-0.01-7.99-0.02-12-0.04-0.75-4.68-1.13-9.17-1.15-13.9v-1.99c-0.01-2.19-0.01-4.37-0.02-6.55 0-1.58-0.01-3.15-0.01-4.73l-0.03-12.8c0-2.66 0-5.32-0.01-7.98-0.01-8.32-0.02-16.6-0.02-25-0.01-9.61-0.03-19.2-0.05-28.8-0.03-7.44-0.04-14.9-0.04-22.3 0-4.44 0-8.88-0.02-13.3-0.02-4.16-0.02-8.33-0.01-12.5 0-1.53-0.01-3.07-0.02-4.6-0.01-2.09 0-4.17 0.01-6.26 0-1.17-0.01-2.33-0.01-3.54 0.13-0.9 0.25-1.8 0.38-2.72 3.63-2.43 5.38-2.26 9.71-2.27z" fill="#F5F6F7"/>
<path transform="translate(480 1143)" d="m0 0c6.03 5.03 11.7 10.3 15.6 17.2 0.5 0.85 0.5 0.85 1.01 1.72 2.76 5.01 4.07 10.1 5.28 15.6 0.61 2.84 0.61 2.84 2.71 5.64 1.43 6.59 1.09 13.3 1 20-3.31 1.1-5.72 1.11-9.2 1.1-1.29-0.01-2.57-0.01-3.89-0.01-0.69-0.01-1.38-0.01-2.09-0.02-2.18-0.01-4.35-0.01-6.53-0.02-5.43-0.01-10.9-0.04-16.3-0.06-5.29-0.02-10.6-0.04-15.9-0.05-0.73 0-1.47-0.01-2.23-0.01-13-0.01-25.9 0.35-38.9 1.07l-1 2c3.73 9 8.5 14.4 17 19 8.38 2.67 15.6 3.73 24 1 0.68-0.19 1.37-0.37 2.07-0.57 5.15-1.6 8.91-4.49 13-7.91 3.59-2.9 6.64-2.65 11.1-2.62 0.71 0 1.42 0 2.15 0.01 2.26 0 4.52 0.01 6.78 0.03 1.54 0 3.07 0.01 4.6 0.01 3.76 0.01 7.52 0.03 11.3 0.05 0.21 7.23-2.66 10.4-7 16-0.67 0.91-0.67 0.91-1.34 1.85-8.14 10.5-20.4 18.6-33.5 20.8-2.37 0.36-2.37 0.36-5.2 1.39-2.47 0.11-4.9 0.16-7.37 0.17-0.72 0-1.44 0-2.18 0.01-1.52 0-3.04 0.01-4.56 0-2.32 0.01-4.64 0.03-6.96 0.04-1.47 0.01-2.95 0.01-4.43 0.01-0.69 0.01-1.38 0.01-2.09 0.02-3.68-0.02-6.27-0.31-9.41-2.25-1.39-0.46-2.79-0.9-4.19-1.31-4.98-1.61-9.33-4.01-13.8-6.69v-2c-1.02-0.28-1.02-0.28-2.06-0.56-9.08-4.44-15.8-14.8-19.2-24-0.6-1.81-1.18-3.62-1.75-5.44-0.25-0.64-0.5-1.28-0.75-1.95-5.74-15.4-3.23-32.1 3.41-46.7 2.25-4.42 4.92-8.69 8.34-12.3h2c0.12-0.93 0.12-0.93 0.25-1.88 0.75-2.12 0.75-2.12 2.62-3.12 0.71-0.33 1.41-0.66 2.13-1 0.38-0.6 0.76-1.19 1.15-1.81 2.66-3.15 5.86-4.5 9.54-6.25 0.68-0.34 1.36-0.68 2.07-1.03 23.7-11.6 51.2-11.5 72.6 4.91zm-61.4 22.7c-5.4 6.53-5.4 6.53-7.94 14.4 1.04 1.27 1.04 1.27 3.36 1.12 1.57 0 1.57 0 3.17-0.01h3.58c1.93 0 1.93 0 3.89-0.01 1.31 0 2.62-0.01 3.97-0.01 3.48 0 6.96-0.01 10.4-0.02 3.55-0.01 7.1-0.02 10.7-0.02 6.97-0.01 13.9-0.03 20.9-0.05l-2-6h-2c-0.08-0.56-0.17-1.11-0.25-1.69-0.99-3.06-2.64-4.9-4.75-7.31-0.6-0.7-1.2-1.4-1.81-2.13-2.87-2.45-5.69-3.48-9.19-4.87l-1-1c-11.6-1-21.8-0.2-31.1 7.56z" fill="#FAFBFC"/>
<path transform="translate(858,1134)" d="m0 0c0.99 0.33 1.98 0.66 3 1v2c0.87 0.25 1.73 0.49 2.62 0.75 3.58 1.32 6.36 2.99 9.38 5.25 0.86 0.64 1.72 1.28 2.6 1.93 5.41 4.16 5.41 4.16 7.4 6.07v3h2c6.17 8.09 9.61 16.2 11.6 26.1 0.37 1.96 0.37 1.96 1.43 3.88 1.09 6.22 1.42 12.7 1 19-1.89 1.89-4.64 1.12-7.15 1.12-0.89 0-1.77 0-2.68-0.01h-2.81c-3.08 0-6.16 0-9.24-0.01-2.13 0-4.26-0.01-6.38-0.01-5.62 0-11.2-0.01-16.8-0.02-5.72-0.01-11.4-0.02-17.2-0.02-11.2-0.01-22.5-0.03-33.7-0.05 1.06 7.5 4.95 13.7 10.9 18.5 1.36 0.86 2.75 1.67 4.14 2.47v2c14.3 1.85 25.8 2.4 38-6h2c0.5-1.48 0.5-1.48 1-3 4.36-1.95 8.19-2.24 12.9-2.2 1.93 0.01 1.93 0.01 3.91 0.02 1.34 0.02 2.69 0.04 4.04 0.06 1.36 0.01 2.73 0.01 4.1 0.02 3.34 0.03 6.68 0.06 10 0.1 1 3.8 1.17 4.65-0.66 8.34-0.78 1.21-1.59 2.41-2.4 3.6-0.42 0.62-0.83 1.24-1.25 1.87-2.86 4.21-5.76 7.93-9.69 11.2h-2v2l-4 1v2c-11.1 6.72-21.7 10.5-34.9 10-2.77-0.05-5.39 0.48-8.12 0.96-0.99-0.49-0.99-0.49-2-1-1.5-0.02-3 0.01-4.5 0.06-10.7 0.05-19-3.3-28.5-8.06v-2c-0.71-0.24-1.43-0.47-2.16-0.72-12.6-5.67-19.2-18.4-23.8-30.6-1.8-6.22-1.7-12.3-1.56-18.7 0-1.27-0.01-2.55-0.01-3.86 0.19-18 5.71-32.2 18.5-45.1 0.76-0.83 1.51-1.67 2.29-2.52 3.06-2.8 6.21-4.46 9.96-6.1 0.99-0.45 0.99-0.45 2-0.91 4.83-2.16 9.7-3.9 14.8-5.47l1-1c12.9-2.38 29.1-2.96 41 3zm-49.2 35.4c-2.46 3-4.37 5.98-5.81 9.62l1 2c6.13 0.03 12.3 0.04 18.4 0.05l6.24 0.03c11.8 0.04 23.6-0.04 35.4-1.08-2.24-5.87-5.21-10.8-10-15h-2v-2h-3v-2c-4.65-1.82-8.86-2.35-13.8-2.31-1.06 0-1.06 0-2.14 0.01-9.87 0.21-17.6 3.24-24.2 10.7zm-1.81 11.6 4 1zm9 0v1h6v-1h-6zm33 0v1h12v-1h-12z" fill="#FAFBFC"/>
<path transform="translate(875,184)" d="m0 0c0.79 0.21 1.59 0.43 2.4 0.65 4.62 1.32 8.59 2.63 12.6 5.35 2.05 1.06 4.13 2.06 6.23 3.04 6.31 3.02 12.4 6.43 17.8 11v2c0.56 0.25 1.11 0.5 1.69 0.75 15.7 8.49 24.6 29 29.6 45.2 2.96 9.92 6.36 21.9 2.48 32-2.26 3.87-4.11 5.57-8.48 6.72-8.25 1.19-16.3 1.58-24.6 1.53-1.21 0.01-2.43 0.02-3.69 0.02-6.08-0.01-11.2-0.32-16.9-2.27-1.64-0.13-3.29-0.22-4.94-0.25-11.5-0.9-22.6-6.39-32.1-12.8-0.77-0.5-1.53-0.99-2.32-1.5-2.25-1.47-4.47-2.98-6.68-4.5-0.67-0.44-1.34-0.87-2.02-1.32-6.19-4.27-13.4-10.7-15.7-18-0.09-0.55-0.17-1.09-0.25-1.66h-2l-2-6h-2c-0.31-0.82-0.63-1.64-0.95-2.49-2.33-6.06-4.67-12.1-7.16-18.1-2.39-6.45-3.4-12.5-3.83-19.4-0.08-0.85-0.16-1.71-0.24-2.59-0.4-6.44 0.9-10.6 5.18-15.5 12.6-10.1 43.6-6.02 58-2zm-14-1v1h5v-1h-5zm-19 27c-1.77 5.94 1.37 10.6 4 16 2.18 3.78 4.54 7.4 7 11 0.42 0.66 0.84 1.32 1.28 2 5.94 8.98 15.8 16.7 26.3 19.4 1.12 0.2 2.23 0.41 3.38 0.62v2h9l1 2c8.16 1.49 16.7 1.12 25 1 0.39-5.13-0.9-8.79-3.12-13.3-0.32-0.66-0.63-1.31-0.96-1.99-2.51-5.11-5.14-10.4-8.92-14.7h-2c-0.25-0.62-0.5-1.24-0.75-1.88-1.07-2.26-1.07-2.26-3.25-3.12-2-1-2-1-2.91-2.88-3.57-6.94-13.2-10.6-20.1-13.1-11.5-3.66-23-3.33-35-3z" fill="#FAFBFC"/>
<path transform="translate(544 1102)" d="m0 0h2.93c1.5 0.03 1.5 0.03 3.03 0.05 1.01 0 2.02-0.01 3.05-0.01 7.49 0.06 7.49 0.06 10.9 2.32 0.43 2.8 0.43 2.8 0.51 6.32 0.04 1.26 0.07 2.52 0.11 3.81 0.04 1.98 0.04 1.98 0.07 4 0.03 1.34 0.07 2.68 0.1 4.02 0.09 3.28 0.16 6.57 0.21 9.85 0.72 0.02 1.44 0.04 2.19 0.06 3.29 0.1 6.58 0.21 9.87 0.32 1.71 0.04 1.71 0.04 3.44 0.09 5.79 0.2 11.1 0.4 16.5 2.53 1.33 2.67 1.12 4.69 1.1 7.67 0 1.68 0 1.68-0.01 3.4-0.01 1.76-0.01 1.76-0.03 3.56 0 1.18 0 2.37-0.01 3.58-0.01 2.93-0.03 5.86-0.05 8.79-3.48 1.16-6.19 1.12-9.85 1.1h-2.01l-6.33-0.03c-1.43-0.01-2.86-0.01-4.29-0.02-3.51-0.01-7.01-0.03-10.5-0.05-0.05 4.55-0.08 9.1-0.11 13.6-0.01 1.54-0.02 3.08-0.04 4.62-0.14 12.8 0.99 25.1 3.15 37.7 7.44 2.56 14.4 3.42 22.2 3.54 5.29 0.15 5.29 0.15 7.46 1.62 1.85 2.63 1.65 4.59 1.62 7.79 0 1.16-0.01 2.32-0.02 3.51-0.02 1.21-0.04 2.42-0.06 3.67 0 1.22-0.01 2.43-0.01 3.69-0.08 9.03-0.08 9.03-1.24 10.2-2.09 0.1-4.18 0.13-6.27 0.14h-3.94c-0.69 0-1.37 0-2.08-0.01-2.04 0-4.08 0-6.13 0.01-22.1-0.02-22.1-0.02-28-3.95-1.22-0.81-1.22-0.81-2.46-1.63-5.26-3.77-5.26-3.77-7.17-5.56v-2c-0.59-0.25-1.19-0.49-1.81-0.75-2.53-1.44-3.62-2.78-5.25-5.18-0.49-0.69-0.97-1.38-1.47-2.09-4.24-8.61-4.92-17.4-4.94-26.8-0.02-1.18-0.04-2.36-0.05-3.58-0.05-3.73-0.08-7.46-0.1-11.2-0.04-3.77-0.08-7.54-0.13-11.3-0.02-2.34-0.04-4.68-0.06-7.01-0.01-1.05-0.02-2.09-0.03-3.17-0.01-1.39-0.01-1.39-0.02-2.8 0.09-2.08 0.09-2.08-1.14-3.1-1.39-0.05-2.79-0.03-4.18 0.01-1.27 0.03-1.27 0.03-2.56 0.05-1.79 0.05-3.59 0.1-5.38 0.16-0.84 0.01-1.69 0.03-2.56 0.04-0.78 0.02-1.56 0.05-2.36 0.07-0.65-0.11-1.29-0.22-1.96-0.33-2.33-3.49-2.23-4.86-2.19-8.98 0-1.16 0.01-2.32 0.02-3.52 0.01-1.22 0.03-2.43 0.05-3.68 0.01-1.23 0.02-2.46 0.02-3.72 0.03-3.03 0.06-6.06 0.1-9.1 2.52-1.26 4.42-1.2 7.23-1.31 1.55-0.07 1.55-0.07 3.12-0.13 1.62-0.06 1.62-0.06 3.28-0.12 1.09-0.04 2.17-0.09 3.29-0.13 2.7-0.11 5.39-0.21 8.08-0.31 2.14-8.1 3.36-15.7 3.5-24.1 0.5-2.9 0.5-2.9 2.22-4.56 2.69-1.58 4.27-1.71 7.38-1.7zm34.9 32.4v1h11v-1h-11z" fill="#FAFBFC"/>
<path transform="translate(1354,1104)" d="m0 0 1 28c9.08 0.25 9.08 0.25 18.2 0.48 1.13 0.03 2.26 0.07 3.42 0.11 1.16 0.03 2.32 0.06 3.51 0.09 2.91 0.32 2.91 0.32 5.91 2.32 0.36 2.58 0.36 2.58 0.33 5.81-0.01 1.16-0.01 2.32-0.02 3.51-0.02 1.21-0.04 2.43-0.06 3.68-0.01 1.21-0.01 2.43-0.02 3.68-0.08 9.01-0.08 9.01-1.23 11.3h-31c0.1 5.96 0.2 11.9 0.32 17.9 0.04 2.02 0.07 4.05 0.1 6.07 0.05 2.92 0.11 5.84 0.17 8.76 0.01 0.9 0.02 1.79 0.03 2.71 0.16 7 0.62 14.5 4.38 20.6 5.58 2.22 11.4 2.57 17.3 3.06 1.79 0.16 3.58 0.31 5.37 0.48 0.78 0.06 1.56 0.13 2.37 0.19 1.95 0.27 1.95 0.27 3.95 1.27v28c-5.41 0.07-10.8 0.13-16.2 0.16-1.84 0.02-3.68 0.04-5.51 0.07-2.66 0.03-5.31 0.05-7.96 0.06-0.81 0.02-1.62 0.03-2.46 0.05-5.6 0-9.71-1.11-14.8-3.34v-2c-2.49-0.69-4.38-1-7-1v-2l-2-1-5-5-2-1c-8.54-12.3-7.12-27.9-7.34-42.2-0.06-3.45-0.15-6.9-0.24-10.4-0.42-16.7-0.42-16.7-0.42-22.5-1.92 0.25-1.92 0.25-3.88 0.5-12.5 1.38-12.5 1.38-18.1-0.5-0.09-4.46-0.14-8.92-0.19-13.4-0.02-1.27-0.05-2.54-0.07-3.85-0.01-1.21-0.02-2.42-0.03-3.67-0.02-1.12-0.03-2.24-0.05-3.39 0.11-0.9 0.22-1.79 0.34-2.71 3.24-2.16 4.34-2.28 8.11-2.41 0.98-0.04 1.96-0.08 2.97-0.12 1.03-0.03 2.05-0.06 3.11-0.09 1.55-0.06 1.55-0.06 3.14-0.12 2.55-0.1 5.11-0.18 7.67-0.26 2.55-9.34 4.63-18.3 5-28 9.12-3.98 19.5-1.36 29 0zm17 119v1h6v-1h-6z" fill="#F6F7F8"/>
<path transform="translate(927 1084)" d="m0 0c2.04-0.01 4.08-0.04 6.12-0.07 1.28-0.01 2.57-0.01 3.89-0.02 1.78-0.01 1.78-0.01 3.58-0.03 3.5 0.41 4.65 0.85 7.09 3.36 0.49 2.95 0.49 2.95 0.48 6.63 0 0.67 0.01 1.35 0.01 2.04 0.01 2.28-0.02 4.55-0.04 6.82v4.88c0.01 4.41-0.02 8.83-0.05 13.2-0.02 4.62-0.02 9.24-0.03 13.8-0.01 8.75-0.04 17.5-0.08 26.2-0.05 9.96-0.07 19.9-0.09 29.9-0.04 20.5-0.11 41-0.2 61.4-1.26 0.16-2.51 0.32-3.8 0.49-0.71 0.09-1.42 0.18-2.14 0.28-4.94 0.56-9.91 0.46-14.9 0.48-1.7 0.03-1.7 0.03-3.43 0.06-1.62 0.01-1.62 0.01-3.28 0.02-0.98 0.01-1.96 0.02-2.97 0.03-3.02-0.43-3.7-0.95-5.51-3.36-0.37-2.41-0.37-2.41-0.37-5.33 0-1.11-0.01-2.21-0.02-3.35 0.01-1.22 0.02-2.43 0.03-3.68v-3.88c-0.01-3.53 0-7.05 0.02-10.6 0.02-3.71 0.02-7.43 0.02-11.1 0-6.26 0.01-12.5 0.04-18.8 0.03-7.94 0.04-15.9 0.04-23.8l0.03-20.7c0.01-2.18 0.01-4.35 0.01-6.53 0.03-19.1 0.41-38.1 1.2-57.2 4.21-2.1 9.69-1.23 14.3-1.24z" fill="#FAFBFC"/>
<path transform="translate(764,214)" d="m0 0 1.57 1.57c1.48 1.7 1.48 1.7 4.43 2.43 9.01 8.56 14.9 18.7 15.4 31.2 0.18 12.3-3.27 21.4-11.4 30.8h-2c-0.5 1.49-0.5 1.49-1 3-6.98 5.45-14.2 7.47-22.8 7.81-0.79 0.04-1.57 0.08-2.38 0.11-7.94 0.27-15.4 0.24-21.8-4.92-0.76-0.41-1.53-0.82-2.31-1.25-6.52-4.25-11-9.98-14.7-16.8-0.58-1.05-1.15-2.1-1.75-3.19-3.29-8.23-3.12-18.5-0.25-26.8 3.09-7 7.12-14 13-19 2.21-0.71 2.21-0.71 4-1v-2c1.39-0.82 2.79-1.63 4.19-2.44 0.77-0.45 1.55-0.9 2.35-1.37 9.81-4.75 26.3-3.96 35.5 1.81zm-30 27v2h-2c-1.06 6.18-1.34 11.1 1 17 4.42 3.72 9.67 3.5 15.2 3.35 3.7-0.47 5.44-1.46 7.79-4.35 2.24-3.66 2.22-6.79 1.54-11-1.43-5.27-4.98-9.17-9.54-12-5.55-1.11-9.82 1.5-14 5zm9 23 4 1z" fill="#FAFBFC"/>
<path transform="translate(950,335)" d="m0 0c0.63 0.28 1.25 0.57 1.89 0.86 10.5 4.88 18.1 13.3 22.5 24.1 1.24 4.34 1.16 8.78 1.15 13.3v3.1c-0.21 8.27-1.58 13.9-6.56 20.7-0.44 0.67-0.89 1.33-1.35 2.02-7 9.37-18.5 14-29.6 16-12.8 0.56-23.7-5.75-33-14-2.28-2.51-4.17-5.14-6-8-0.4-0.57-0.8-1.14-1.22-1.72-4.42-7.18-4.88-18.5-3.16-26.7 4.19-11 9.82-20.7 20.4-26.6 1.3-1.02 1.3-1.02 2.62-2.06 9.22-5.29 22.9-5.83 32.4-0.94zm-25.3 28.9c-2.83 3.45-3.77 4.91-3.44 9.5 1.39 6.64 1.39 6.64 5.75 11.6 5.04 1.94 8.76 2.36 14 1 3.38-2.18 5.78-4.12 7-8 0.89-6.36-1.23-11.9-5-17-6.65-3.54-12.7-1.77-18.3 2.94z" fill="#F9FAFB"/>
<path transform="translate(341 1133)" d="m0 0c2.19-0 4.39-0.02 6.58-0.04 1.4 0 2.79 0 4.19-0.01 1.27 0 2.54 0 3.84-0.01 3.16 0.25 3.16 0.25 6.16 2.25 0.37 2.07 0.37 2.07 0.37 4.67 0.01 1.48 0.01 1.48 0.01 2.99-0.01 1.08-0.01 2.17-0.02 3.29v3.45c0 3.78-0.01 7.57-0.03 11.4-0.01 2.62-0.01 5.24-0.01 7.85 0 5.5-0.02 11-0.04 16.5-0.03 7.06-0.04 14.1-0.04 21.2-0.01 5.41-0.02 10.8-0.03 16.2 0 2.61-0.01 5.21-0.01 7.81-0.01 3.63-0.02 7.26-0.04 10.9v3.3c-0.01 0.98-0.01 1.96-0.02 2.98 0 0.86-0.01 1.72-0.01 2.6-0.13 1.95-0.13 1.95-1.13 2.95-4.67 0.29-9.34 0.31-14 0.35-1.57 0.01-3.15 0.04-4.72 0.08-2.27 0.05-4.53 0.07-6.79 0.09-0.71 0.02-1.41 0.04-2.14 0.07-1.99-0.01-1.99-0.01-5.34-0.59-3.61-3.78-3.47-8.19-3.51-13.2-0.02-0.8-0.04-1.61-0.06-2.43-0.05-2.64-0.09-5.28-0.12-7.91-0.03-1.84-0.06-3.68-0.1-5.51-0.09-5.67-0.16-11.3-0.21-17-0.01-0.9-0.02-1.79-0.03-2.71-0.05-5.85-0.08-11.7-0.1-17.5v-2.3c-0.03-8.16 0.17-16.2 0.88-24.4 0.42-5.13 0.61-10.3 0.81-15.4 0.04-1.04 0.09-2.07 0.13-3.14 0.11-2.52 0.21-5.03 0.31-7.54 4.39-2.2 10.4-1.19 15.2-1.19z" fill="#FAFBFC"/>
<path transform="translate(984 1133)" d="m0 0c2.11-0 4.23-0.02 6.34-0.04 1.34 0 2.69 0 4.03-0.01 1.22 0 2.45 0 3.7-0.01 3.05 0.25 3.05 0.25 6.05 2.25 0.37 2.08 0.37 2.08 0.36 4.72 0.01 0.99 0.01 1.99 0.01 3.01-0.01 1.1-0.02 2.19-0.03 3.32v3.49c0 3.82-0.02 7.64-0.05 11.5 0 2.65-0.01 5.29-0.01 7.93-0.01 6.26-0.03 12.5-0.06 18.8-0.04 7.12-0.05 14.2-0.07 21.4-0.03 14.6-0.08 29.3-0.15 44h-36v-119c5.1-1.71 10.5-1.19 15.9-1.19z" fill="#F3F4F5"/>
<path transform="translate(998 1076)" d="m0 0c2.65 1.65 4.22 3.63 5.94 6.21 0.54 0.52 1.07 1.03 1.63 1.56 3.55 3.72 3.6 7.19 3.5 12.2-0.02 1.17-0.04 2.34-0.06 3.55-0.02 0.89-0.04 1.78-0.07 2.7h-2l-1 6h-2v2c-1.35 1.22-1.35 1.22-3.19 2.5-0.59 0.42-1.18 0.85-1.79 1.28-5.86 3.54-11.3 4-18 3.22-2.91-1-5.4-2.36-8-4-0.93-0.51-1.85-1.03-2.81-1.56-5.23-3.44-6.88-7.43-8.19-13.4 0.22-6.45 2.14-11.9 6.44-16.8 9.26-8.13 18.1-11.1 29.6-5.46z" fill="#F5F6F7"/>
<path transform="translate(352 1074)" d="m0 0c5.62 2.91 9.33 5.11 12.4 10.8 0.65 0.33 1.31 0.66 2 1 1.37 17.7 1.37 17.7-3.44 23.4-6.17 5.52-12.7 8.47-21 8.07-7.77-1.35-13.2-5.5-18.3-11.4-2.95-4.77-2.65-10.6-2.27-16.1 1.36-5.35 4.65-9.46 9.22-12.5 7.21-4.07 13.3-6.08 21.4-3.29z" fill="#FAFBFC"/>
<path transform="translate(946 1365)" d="m0 0c0.67-0 1.34-0.01 2.04-0.01 3.07 0 5.46 0.16 8.4 1.13v2c0.76 0.09 1.52 0.17 2.31 0.26 3.32 0.92 3.91 1.85 5.69 4.74 1.21 4.64 1.5 8.71-0.25 13.2-0.58 0.93-1.16 1.86-1.75 2.81-0.59 1.29-1.15 2.58-1.69 3.88-0.65 1.55-0.65 1.55-1.31 3.12 1.65 0.67 3.3 1.32 5 2v5h-11l-4-9h-6c0.33 2.98 0.66 5.95 1 9-6.84 0.3-6.84 0.3-9 0-2.5-3.75-2.25-5.74-2.23-10.2v-2.12c0-1.48 0.01-2.96 0.02-4.44 0.02-2.27 0.02-4.54 0.02-6.81 0.04-11.1 0.04-11.1 1.19-13.4 3.7-1.43 7.64-1.13 11.6-1.12zm-2.5 9.25c-1.57 2.76-1.45 4.76-1.06 7.87 1.69 2.74 2.91 2.98 6.06 3.76 2.87 0.5 2.87 0.5 4.94-0.76 1.13-5.33 1.13-5.33 0.06-10.5-0.35-0.49-0.7-0.99-1.06-1.5-4.66-0.38-4.66-0.38-8.94 1.13z" fill="#F5F6F7"/>
<path transform="translate(294,1365)" d="m0 0c6.58 0.58 6.58 0.58 8 2 0.14 4 0.04 7.99 0 12 6.93 0.49 6.93 0.49 14 1-0.06-1.92-0.12-3.84-0.19-5.81-0.18-5.67-0.18-5.67 1.55-8.09 1.64-1.1 1.64-1.1 4.14-0.91 2.5 0.81 2.5 0.81 5.5 2.81 0.27 2.62 0.35 5.01 0.29 7.63 0 0.75-0.01 1.51-0.01 2.28-0.02 2.41-0.05 4.81-0.09 7.21-0.02 1.63-0.03 3.26-0.04 4.89-0.04 4-0.09 7.99-0.15 12-4.12 0.98-6.16 0.92-10-1-1-1-1-1-1.1-3.29 0.01-0.91 0.03-1.83 0.04-2.77 0.01-0.92 0.02-1.84 0.02-2.79 0.02-0.71 0.03-1.42 0.04-2.15-4.12-2-7.45-2.26-12-2-1.88 1.88-1.39 5.04-1.56 7.56-0.09 1.2-0.17 2.4-0.26 3.63-0.06 0.93-0.12 1.86-0.18 2.81h-9c-1.5-2.99-1.16-6.06-1.17-9.34 0-0.73 0-1.45-0.01-2.2 0-1.53-0.01-3.07-0.01-4.6 0-2.35-0.02-4.7-0.03-7.05-0.01-1.49-0.01-2.98-0.01-4.47-0.01-0.7-0.01-1.41-0.02-2.13 0.02-4.98 0.02-4.98 2.25-7.21z" fill="#FAFBFC"/>
<path transform="translate(860 1365)" d="m0 0c1.09 0.02 2.18 0.03 3.31 0.05 8.59 0.53 8.59 0.53 11.2 3.2 0.79 0.43 1.57 0.87 2.38 1.31 3.88 2.5 5.96 5.3 7.94 9.44 1.41 6.7 0.19 13.4-3.32 19.2-5.75 5.13-11.3 5.73-18.8 5.5-0.93 0-1.86 0.01-2.82 0.01-6.56-0.1-6.56-0.1-9.69-1.59-2.62-2.9-2.27-5.25-2.3-9.11-0.01-0.7-0.02-1.4-0.02-2.12-0.01-1.47-0.01-2.95 0.01-4.42 0.01-2.26-0.02-4.52-0.06-6.78v-4.3-3.96c0.63-3.23 0.63-3.23 2.98-5.16 3.21-1.29 5.64-1.4 9.09-1.32zm-0.44 9.25c-2.57 3.86-2.29 7.09-2.25 11.6-0.01 0.78-0.01 1.56-0.02 2.37-0.17 4.51-0.17 4.51 2.27 8.07 4.15 1.06 6.66 1.09 10.8-0.06 3.3-1.66 3.3-1.66 4.68-4.57 0.83-5.6 0.46-10.2-1.87-15.4-3.68-2.71-6.7-2.46-11.2-2.41-1.21 0.23-1.21 0.23-2.46 0.47z" fill="#F9FAFB"/>
<path transform="translate(748 1365)" d="m0 0h2.18c5.29 0.09 5.29 0.09 7.57 2.38 0.8 0.62 0.8 0.62 1.62 1.26 4.37 3.43 6.77 6.25 8.38 11.7 0.44 5.49 0.17 10.9-2 16-2.5 2.87-2.5 2.87-5 5-0.66 0.66-1.32 1.31-2 2-6.66 2.41-17.2 2.3-23.7-0.5-4.11-2.6-6.14-5.82-7.31-10.5-0.65-6.79-0.41-12.6 2-19h2c0.21-0.58 0.41-1.16 0.63-1.76 3.74-6.12 9.08-6.85 15.6-6.62zm-10.2 12.4c-2.06 3.63-3.06 5.99-2.81 10.2 1 3.61 1 3.61 2.81 6.82 2.54 1.28 2.54 1.28 5 2v1c5.61 0.29 9.12 0.13 14-3 2.86-4.3 2.7-7.97 2-13-1.04-3.15-2.22-5.15-5-7-5.56-1.14-11.8-1.12-16 3z" fill="#F7F8F9"/>
<path transform="translate(821 1368)" d="m0 0c4.59 3.81 7.44 7.31 8.04 13.4 0.07 13.6 0.07 13.6-5 19-4.25 3.52-8.69 3.7-14 4-0.76 0.06-1.52 0.13-2.3 0.19-5.68 0.3-10.2-0.62-14.7-4.19-4.95-5.42-4.6-12.5-4.37-19.5 0.59-5.62 1.82-8.18 6.08-12.1 7.39-5.22 18.4-5.11 26.2-0.82zm-24 11.4c-0.4 2.76-0.4 2.76-0.38 5.87-0.02 1.05-0.05 2.1-0.08 3.18 0.57 3.67 1.51 4.75 4.46 6.95 4.21 1.57 8.43 2.27 12.9 1.5 3.48-2.45 5.68-5.21 6.52-9.46 0.28-5.09-1.09-8.06-4.39-12-6.71-3.35-14-0.99-19 4z" fill="#F9FAFB"/>
<path transform="translate(554 1365)" d="m0 0c2.44 0.88 2.44 0.88 4.44 3.88 0.26 3.68 0.08 7.3 0 11h13c0.33-4.62 0.66-9.25 1-14 6-1 6-1 8.35 0.09 2.21 2.56 2.12 4.02 2.07 7.38-0.01 1.59-0.01 1.59-0.02 3.22-0.03 1.11-0.06 2.22-0.09 3.37-0.01 1.67-0.01 1.67-0.03 3.37-0.11 8.23-0.11 8.23-1.28 10.6-0.07 1.37-0.09 2.75-0.06 4.12 0.02 1.28 0.04 2.56 0.06 3.88h-8c-1.44-2.87-1.43-5.74-1.72-8.91-0.17-2.15-0.17-2.15-1.28-4.09-2.06-0.51-2.06-0.51-4.44-0.69-0.8-0.09-1.61-0.18-2.43-0.26-2.19-0.22-2.19-0.22-4.13 0.95-0.47 3.04-0.47 3.04-0.63 6.56-0.07 1.2-0.15 2.39-0.22 3.63-0.05 0.92-0.1 1.85-0.15 2.81-6.06 0.19-6.06 0.19-8 0-3.5-3.5-2.31-8.68-2.32-13.4v-2.25c0-2.27-0.02-4.54-0.04-6.8-0.01-1.44-0.01-2.88-0.01-4.32v-3.98c0.37-3.24 0.37-3.24 1.73-5.2 1.64-1.04 1.64-1.04 4.2-0.92z" fill="#F9FAFB"/>
<path transform="translate(1060 1366)" d="m0 0c2 1.23 3.74 2.56 5.52 4.1 0.59 0.51 1.18 1.01 1.78 1.53 2.39 2.3 3.56 3.87 3.72 7.22-0.05 0.76-0.09 1.53-0.13 2.31-3.56-0.61-6.68-1.57-10-3v-2c-4.89-1.56-9.4-1.55-14.2 0.13-3.49 2.38-4.61 3.79-5.75 7.87 0.54 3.23 1.45 6.13 3 9 3.86 2.58 6.51 2.64 11.1 2.61 4.52-0.93 6.89-3.56 9.96-6.86 1.97-1.75 1.97-1.75 5.97-1.75 0.49 7.19 0.49 7.19-1.69 10.8-6.71 6.34-13 6.54-22 6.47-4.21-0.36-6.31-1.39-9.36-4.29-0.93-0.82-1.86-1.65-2.81-2.5-3.53-4.02-3.37-7.68-3.44-12.9-0.03-1.12-0.05-2.23-0.08-3.37 0.52-5.01 2.53-7.45 6.14-10.8 6.63-4.94 14.1-7.78 22.3-4.54z" fill="#EAEBEC"/>
<path transform="translate(1135 1365)" d="m0 0c1.32-0.01 2.64-0.03 4-0.04 3.29 0.21 4.85 0.5 7.56 2.23 1.01 0.58 2.02 1.15 3.06 1.75 3.42 2.61 4.63 4.16 5.94 8.25 0.28 4.76-0.55 8.17-2.81 12.4-2.66 2.87-5.43 3.26-9.19 4-4.44 0.86-4.44 0.86-7.89 3.58-1.54 2.44-1.54 2.44-3.11 6.05-2.97-0.66-5.94-1.32-9-2-0.02-4.18-0.04-8.36-0.05-12.6-0.01-1.42-0.01-2.84-0.02-4.26-0.02-2.05-0.02-4.09-0.03-6.14 0-1.23-0.01-2.46-0.01-3.73 0.1-2.91 0.43-5.5 1.11-8.32 3.54-1.18 6.76-1.19 10.4-1.19zm0.94 9.5c-2.54 2.52-2.54 2.52-3.38 5.69 0.92 2.36 1.92 4.7 3 7 5.5-0.18 5.5-0.18 10.1-2.75 1.24-2.97 1.05-4.24-0.06-7.25-1.76-2.83-1.76-2.83-4-5-3.21-0.33-3.21-0.33-5.62 2.31z" fill="#EDEEEF"/>
<path transform="translate(1246,1366)" d="m0 0v2c0.62 0.23 1.24 0.45 1.88 0.69 2.79 1.73 3.23 3.19 4.12 6.31v4c-1.44-0.26-2.88-0.53-4.31-0.81-1.2-0.23-1.2-0.23-2.43-0.46-2.52-0.82-3.64-1.65-5.26-3.73v-2l-8 1-1 5c0.58 0.05 1.17 0.1 1.77 0.16 7.85 1.08 14.6 4.16 20.2 9.84 1.57 4.69 0.7 8.25-1.09 12.7-1.91 2.27-1.91 2.27-5.35 3.12-1.37 0.1-2.75 0.17-4.12 0.21-0.72 0.04-1.43 0.07-2.17 0.1-5.94 0.13-11.2-0.82-16.3-4.16-2.29-3.44-2.18-4.99-2-9 3.4 0.43 5.91 1.43 8.88 3.06 3.95 2.09 6.7 2.31 11.1 1.94l-1-7c-0.72-0.18-1.45-0.36-2.2-0.55-12.6-3.29-12.6-3.29-16.8-7.45-0.36-4.75 0.36-8.19 3.31-11.9 6.79-5.2 12.6-5.74 20.7-3.06z" fill="#EEEFF0"/>
<path transform="translate(849 318)" d="m0 0c1.27 0.01 1.27 0.01 2.56 0.02 0.87 0.02 1.74 0.03 2.64 0.05 1.34 0.01 1.34 0.01 2.69 0.03 2.19 0.02 4.38 0.05 6.56 0.1v1c2.48 0.49 2.48 0.49 5 1 0.03 4.14 0.05 8.29 0.07 12.4 0 1.19 0.01 2.37 0.02 3.59 0.01 1.69 0.01 1.69 0.01 3.41 0.01 1.56 0.01 1.56 0.02 3.16-0.12 2.41-0.12 2.41-1.12 3.41-4.14 0.25-8.29 0.18-12.4 0.18-1.18 0.02-2.35 0.03-3.55 0.04-1.12 0-2.24 0-3.39 0.01-1.03 0-2.06 0-3.12 0.01-2.51-0.24-2.51-0.24-4.51-2.24-0.22-2.43-0.22-2.43-0.19-5.45 0-1.08 0.01-2.15 0.02-3.26 0.01-1.13 0.03-2.26 0.05-3.42 0.01-1.14 0.02-2.27 0.03-3.44 0.02-2.81 0.05-5.62 0.09-8.43 2.99-1.73 5.11-2.25 8.55-2.2z" fill="#FAFBFC"/>
<path transform="translate(412,1364)" d="m0 0c5.53 1.92 7.5 7.06 10 12 7.77 17.4 7.77 17.4 9 26-1 1-1 1-3.62 1.44-3.79-0.49-4-0.88-6.44-3.5-2.57-2.48-3.63-2.92-7.28-3.12-3.25 0.28-6.44 0.65-9.66 1.18-0.14 0.64-0.29 1.28-0.44 1.94-0.56 2.06-0.56 2.06-1.56 3.06-2.33 0.04-4.67 0.04-7 0-1.5-4.6 0.25-7.71 2.12-11.9 0.66-1.52 1.31-3.03 1.95-4.55 0.33-0.76 0.65-1.51 0.99-2.29 2.12-5.02 4.02-10.1 5.94-15.2h2c0.29-0.64 0.58-1.28 0.88-1.94 1.12-2.06 1.12-2.06 3.12-3.06zm-1 15c-2.17 3.25-2.21 3.6-1.62 7.19 0.2 1.26 0.41 2.51 0.62 3.81 2.97 0.49 2.97 0.49 6 1-0.26-1.63-0.53-3.25-0.81-4.88-0.15-0.9-0.3-1.8-0.46-2.74-0.56-2.72-0.56-2.72-3.73-4.38z" fill="#F8F9FA"/>
<path transform="translate(994 1365)" d="m0 0h2.8c0.96-0 1.93 0 2.92 0.01 1.44-0.01 1.44-0.01 2.92-0.01h2.8 2.56c2.22 0.13 2.22 0.13 5.22 1.13v7h-16l1 7c0.67-0.04 1.35-0.09 2.05-0.14 7.37-0.3 7.37-0.3 10.6 2.14 0.68 0.99 0.68 0.99 1.38 2l-2 3c-2.5 0.44-2.5 0.44-5.44 0.57-4.56 0.19-4.56 0.19-8.56 2.43 0.35 1.98 0.35 1.98 1 4 2.53 1.27 4.62 1.29 7.44 1.5 3.12 0.24 5.57 0.51 8.56 1.5 1.19 2.07 1.19 2.07 2 4-6.2 2.21-11.9 2.24-18.4 2.13-1.02-0.01-2.03-0.02-3.08-0.03-2.5-0.02-4.99-0.06-7.48-0.1-1.28-3.84-1.03-7.62-0.88-11.6 0.02-0.72 0.05-1.45 0.07-2.2 0.08-2.31 0.16-4.62 0.25-6.94l0.15-4.71c0.13-3.85 0.27-7.69 0.41-11.5 2.9-0.96 4.76-1.13 7.78-1.13z" fill="#EFF0F1"/>
<path transform="translate(803 550)" d="m0 0c0.85 0 1.7 0.01 2.58 0.01 1.39 0.01 1.39 0.01 2.81 0.01 1.45 0.02 1.45 0.02 2.94 0.04h2.93c7.21 0.04 7.21 0.04 10.6 1.18 1.1 5.92 0.94 11.4 0.57 17.4-0.06 0.92-0.11 1.85-0.16 2.8-0.13 2.25-0.27 4.51-0.41 6.76-3.96 0.06-7.91 0.1-11.9 0.13-1.13 0.01-2.26 0.03-3.42 0.05-1.61 0.01-1.61 0.01-3.26 0.02-1.49 0.01-1.49 0.01-3.02 0.03-2.43-0.23-2.43-0.23-4.43-2.23-0.26-2.4-0.26-2.4-0.26-5.37-0.01-1.07-0.01-2.14-0.01-3.24 0.01-1.67 0.01-1.67 0.02-3.39 0-1.12-0.01-2.23-0.02-3.39 0-1.07 0-2.13 0.01-3.23v-2.98c0.34-3.15 1.16-4.27 4.37-4.64z" fill="#FBFCFD"/>
<path transform="translate(553 564)" d="m0 0c1.12-0.02 2.23-0.04 3.38-0.06 1.07-0.01 2.14-0.01 3.24-0.02 1.47-0.01 1.47-0.01 2.98-0.03 2.52 0.36 2.52 0.36 4.36 1.53 1.64 2.58 1.42 4.35 1.24 7.37-0.06 1.08-0.11 2.15-0.17 3.25-0.07 1.12-0.14 2.24-0.22 3.4-0.09 1.69-0.09 1.69-0.18 3.43-0.16 2.79-0.32 5.59-0.51 8.38-4.12 0.09-8.24 0.14-12.4 0.19-1.18 0.02-2.35 0.05-3.56 0.07-1.12 0.01-2.25 0.02-3.4 0.03-1.04 0.02-2.07 0.03-3.14 0.05-0.84-0.11-1.67-0.22-2.53-0.34-2.22-3.33-2.24-4.4-2.23-8.29 0.01-1.02 0.01-2.05 0.01-3.1 0.01-1.07 0.02-2.14 0.04-3.24v-3.25c0.06-10.9 2.75-9.32 13.1-9.37z" fill="#FAFBFC"/>
<path transform="translate(711 755)" d="m0 0c0.99 0 1.97 0.01 2.99 0.01 1.03 0.01 2.06 0.02 3.13 0.03 1.56 0 1.56 0 3.15 0.01 2.57 0.01 5.15 0.03 7.72 0.05v2h3c0.03 2.85 0.05 5.71 0.06 8.56 0.01 0.8 0.02 1.6 0.03 2.42 0.02 4.79-0.28 9.3-1.09 14-4.12 0.08-8.25 0.14-12.4 0.19-1.18 0.02-2.35 0.05-3.57 0.07-1.12 0.01-2.24 0.02-3.39 0.03-1.04 0.02-2.08 0.03-3.15 0.05-0.83-0.11-1.66-0.23-2.52-0.34-2.27-3.41-2.19-4.36-1.97-8.33 0.05-1.02 0.1-2.05 0.15-3.11 0.07-1.07 0.13-2.15 0.2-3.25 0.08-1.63 0.08-1.63 0.17-3.28 0.14-2.68 0.29-5.36 0.45-8.03 2.51-1.25 4.21-1.12 7.01-1.1z" fill="#F9FAFB"/>
<path transform="translate(361 1365)" d="m0 0c1.37-0.02 1.37-0.02 2.76-0.04h2.67c0.8-0.01 1.61-0.01 2.44-0.02 2.53 0.28 4.13 0.85 6.25 2.25 0.76 2.62 0.76 2.62 1 5-3.42 1.14-6.08 1.1-9.68 1.06-1.77-0.01-1.77-0.01-3.58-0.03-0.9-0.01-1.8-0.02-2.74-0.03v6c0.69 0.05 1.38 0.1 2.09 0.15 0.9 0.07 1.8 0.15 2.73 0.22 1.34 0.11 1.34 0.11 2.7 0.21 2.48 0.42 2.48 0.42 5.48 2.42-0.32 1.65-0.66 3.3-1 5l-14 1c0.67 2.31 1.32 4.62 2 7 1.27 0.09 1.27 0.09 2.56 0.18 1.64 0.13 1.64 0.13 3.32 0.25 1.64 0.13 1.64 0.13 3.3 0.25 2.82 0.32 2.82 0.32 4.82 1.32 0.69 2 0.69 2 1 4-2.45 2.45-8.44 1.62-11.7 1.81-1.01 0.08-2.01 0.15-3.04 0.23-4.37 0.24-7.38 0.34-11.4-1.51-2.55-3.54-2.45-6.65-2.26-10.8 0.02-0.79 0.04-1.58 0.05-2.4 0.25-7.42 0.71-15 2.38-22.3 3.63-1.81 7.89-1.19 11.9-1.19z" fill="#FAFBFC"/>
<path transform="translate(635 196)" d="m0 0c1.59-0.03 1.59-0.03 3.22-0.06 1.02-0.01 2.04-0.01 3.09-0.02 0.93-0.01 1.87-0.02 2.83-0.03 2.42 0.36 2.42 0.36 4.24 1.55 1.63 2.5 1.45 4.14 1.29 7.1-0.05 1.02-0.1 2.05-0.15 3.1-0.07 1.07-0.14 2.14-0.21 3.24-0.05 1.07-0.1 2.15-0.16 3.25-0.43 7.96-0.43 7.96-1.59 9.12-3.97 0.28-7.95 0.23-11.9 0.25-1.68 0.03-1.68 0.03-3.4 0.06-1.07 0.01-2.14 0.01-3.25 0.02-0.99 0.01-1.97 0.02-2.99 0.03-1.2-0.18-1.2-0.18-2.42-0.36-2.23-3.35-2.24-4.42-2.19-8.32 0-1.03 0.01-2.06 0.02-3.12 0.02-1.61 0.02-1.61 0.05-3.25 0.01-1.08 0.02-2.16 0.02-3.28 0.03-2.68 0.06-5.35 0.1-8.03 4-2 9.05-1.23 13.4-1.25z" fill="#FAFBFC"/>
<path transform="translate(911 496)" d="m0 0c0.93 0 1.87 0.01 2.83 0.01 1.53 0.01 1.53 0.01 3.08 0.01 1.07 0.01 2.14 0.02 3.24 0.04h3.22c7.92 0.04 7.92 0.04 11.3 1.18v25c-4.29 0.06-8.58 0.1-12.9 0.13-1.22 0.01-2.44 0.03-3.7 0.05-1.75 0.01-1.75 0.01-3.54 0.02-1.08 0.01-2.16 0.02-3.27 0.03-2.61-0.23-2.61-0.23-4.61-2.23-0.26-2.21-0.26-2.21-0.27-4.93v-2.97c0-1.02 0.01-2.04 0.02-3.1-0.01-1.02-0.02-2.04-0.02-3.1v-2.96c0.01-0.9 0.01-1.8 0.01-2.72 0.37-3.19 1.37-4.12 4.55-4.46z" fill="#FBFCFD"/>
<path transform="translate(601 755)" d="m0 0c1.02-0 2.04-0.01 3.08-0.01 1.07 0.01 2.14 0.02 3.24 0.03 1.59-0.02 1.59-0.02 3.22-0.03 1.53 0.01 1.53 0.01 3.08 0.01 1.41 0 1.41 0 2.84 0.01 2.42 0.26 2.42 0.26 5.42 2.26 0.25 2.43 0.25 2.43 0.07 5.44-0.05 1.08-0.11 2.15-0.16 3.26-0.08 1.13-0.15 2.26-0.22 3.42-0.1 1.7-0.1 1.7-0.19 3.44-0.15 2.81-0.32 5.62-0.5 8.44-4.3 1.43-8.44 1.22-12.9 1.25-0.91 0.02-1.81 0.04-2.75 0.06-1.31 0.01-1.31 0.01-2.65 0.01-0.8 0.01-1.6 0.02-2.42 0.03-2.89-0.46-4.21-1.25-6.24-3.35-0.49-2.33-0.49-2.33-0.46-5.04 0-0.97 0.01-1.95 0.01-2.95 0.02-1.02 0.05-2.03 0.07-3.08 0.01-1.02 0.01-2.03 0.01-3.08 0.12-10.1 0.12-10.1 7.49-10.1z" fill="#FBFCFD"/>
<path transform="translate(658 755)" d="m0 0c1.31-0 1.31-0 2.65-0.01 0.91 0.01 1.82 0.02 2.75 0.03 0.91-0.01 1.82-0.02 2.76-0.03 0.88 0 1.75 0.01 2.65 0.01 0.8 0 1.6 0 2.42 0.01 2.11 0.26 2.11 0.26 5.11 2.26 0.36 2.41 0.36 2.41 0.33 5.41-0.01 1.07-0.01 2.14-0.02 3.24-0.02 1.13-0.04 2.25-0.06 3.41-0.01 1.13-0.01 2.25-0.02 3.41-0.08 8.37-0.08 8.37-1.23 9.53-3.97 0.28-7.96 0.23-11.9 0.25-1.68 0.03-1.68 0.03-3.4 0.06-1.07 0-2.15 0.01-3.25 0.01-0.99 0.01-1.98 0.02-3 0.03-1.19-0.17-1.19-0.17-2.41-0.35-2.2-3.31-2.24-4.28-2.2-8.11 0.01-0.98 0.02-1.97 0.02-2.98 0.02-1.02 0.04-2.05 0.05-3.1 0.01-1.04 0.02-2.07 0.03-3.14 0.03-2.56 0.06-5.12 0.1-7.67 3.01-1.74 5.2-2.26 8.66-2.27z" fill="#FAFBFC"/>
<path transform="translate(1188 1365)" d="m0 0c0.85-0.02 1.7-0.04 2.58-0.06 4.73-0.03 8.37-0.05 12 3.31v4c-4.61 0.33-9.24 0.66-14 1-0.66 1.65-1.31 3.3-2 5 0.33 0.66 0.67 1.32 1 2 1.04-0.03 1.04-0.03 2.09-0.07 1.35-0.03 1.35-0.03 2.73-0.06 0.89-0.02 1.78-0.04 2.7-0.07 2.48 0.2 2.48 0.2 5.48 2.2-0.32 1.65-0.66 3.3-1 5-0.84 0.06-1.68 0.12-2.55 0.18-1.1 0.09-2.19 0.17-3.32 0.26-1.64 0.12-1.64 0.12-3.3 0.24-2.77 0.15-2.77 0.15-4.83 1.32v6c1.47 0.09 1.47 0.09 2.96 0.18 1.91 0.13 1.91 0.13 3.86 0.26 1.26 0.08 2.53 0.16 3.83 0.24 3.35 0.32 3.35 0.32 6.35 1.32v6c-4.1-0.14-8.2-0.29-12.3-0.44-1.16-0.04-2.33-0.08-3.53-0.12-1.68-0.06-1.68-0.06-3.39-0.12-1.03-0.04-2.07-0.08-3.13-0.11-2.64-0.21-2.64-0.21-5.64-1.21l-0.06-11.3c-0.01-1.06-0.01-2.11-0.02-3.19-0.02-6.89 0.33-13.6 1.08-20.5 4.15-1.38 8.04-1.22 12.4-1.25z" fill="#F0F1F2"/>
<path transform="translate(616 592)" d="m0 0h2.95c1.02-0 2.04 0 3.09 0.01 1.01-0.01 2.03-0.01 3.07-0.01h2.95 2.71c2.33 0.13 2.33 0.13 5.33 1.13 0.03 3.98 0.04 7.96 0.06 11.9 0.01 1.14 0.02 2.27 0.03 3.44 0 1.62 0 1.62 0.01 3.28 0 1.5 0 1.5 0.01 3.03-0.11 2.31-0.11 2.31-1.11 3.31-1.84 0.1-3.69 0.13-5.53 0.14h-3.4c-1.18 0-2.36-0.01-3.57-0.01-1.77 0-1.77 0-3.58 0.01h-3.39c-1.04-0.01-2.07-0.01-3.14-0.01-2.39-0.13-2.39-0.13-3.39-1.13-0.09-1.78-0.11-3.56-0.1-5.34 0-1.08 0.01-2.16 0.01-3.28 0.01-1.13 0.02-2.27 0.03-3.44 0-1.14 0-2.28 0.01-3.45 0.01-2.83 0.03-5.66 0.05-8.49 2.47-1.23 4.14-1.13 6.9-1.13z" fill="#FAFBFC"/>
<path transform="translate(690 1365)" d="m0 0h2.82c1.47 0 1.47 0 2.96 0.01 0.98-0.01 1.95-0.01 2.96-0.01h2.82 2.6c2.12 0.13 2.12 0.13 4.12 1.13v8h-14l-1 8c0.83 0.04 1.66 0.08 2.52 0.12 1.09 0.06 2.17 0.13 3.29 0.2 1.62 0.08 1.62 0.08 3.27 0.17 3.1 0.54 4.05 1.07 5.92 3.51-0.99 2.48-0.99 2.48-2 5h-13c0.02 1.61 0.04 3.22 0.06 4.88 0.07 4.87 0.07 4.87-1.06 7.12-3.37 0.19-3.37 0.19-7 0-2.46-3.69-2.25-6.46-2.19-10.7v-2.27c0.02-2.4 0.04-4.79 0.07-7.18 0.01-1.63 0.02-3.25 0.02-4.88 0.03-3.98 0.06-7.96 0.1-11.9 2.43-1.21 4.01-1.13 6.72-1.13z" fill="#FAFBFC"/>
<path transform="translate(609,1366)" d="m0 0v2c0.87 0.28 0.87 0.28 1.75 0.56 3.35 2.15 4.43 4.93 6.25 8.44 2.42-0.03 2.42-0.03 5-1 1.86-2.97 1.86-2.97 3-6h2v-2c2.47-2.47 3.71-2.98 7.25-3.19 1.36 0.1 1.36 0.1 2.75 0.19l-4 10h-2c-0.1 0.87-0.21 1.73-0.31 2.62-0.72 3.55-1.96 6.22-3.69 9.38h-2c-0.05 0.74-0.1 1.47-0.15 2.23-0.07 0.98-0.15 1.95-0.23 2.96-0.06 0.96-0.13 1.92-0.21 2.92-0.41 2.91-1.21 5.22-2.41 7.89-2.38 0.19-2.38 0.19-5 0-2.03-3.05-2.48-4.79-3.19-8.31-2-8.46-5.9-16.1-10.5-23.4-1.28-2.28-1.28-2.28-1.28-5.28 2.67-1.33 4.17-0.67 7 0z" fill="#F7F8F9"/>
<path transform="translate(526,1366)" d="m0 0 2 2c-0.38 3.62-0.38 3.62-1 7l-10 1-2 26c-2.97 0.49-2.97 0.49-6 1-2.56-2.56-2.27-3.6-2.34-7.16-0.03-1.02-0.06-2.04-0.09-3.09-0.05-2.17-0.09-4.33-0.14-6.5-0.03-1.02-0.06-2.04-0.09-3.09-0.02-1.41-0.02-1.41-0.05-2.85-0.07-2.5-0.07-2.5-2.29-4.31-0.91-0.27-1.81-0.54-2.75-0.81-3.97-1.45-6.13-3.37-9.25-6.19 2.77-3.21 5.06-3.54 9.27-3.88 8.28-0.37 16.5-0.46 24.7 0.88z" fill="#F9FAFB"/>
<path transform="translate(460,1366)" d="m0 0c1.43 2.85 1.06 5.26 1 8.44-0.04 6.21 0.03 12.4 1 18.6 2.08 2.08 6.42 1.38 9.24 1.52 3.04 0.53 4.47 1.45 6.76 3.48l-1 5c-3.96 0.09-7.92 0.14-11.9 0.19-1.12 0.02-2.25 0.05-3.41 0.07-1.62 0.02-1.62 0.02-3.26 0.03-1.5 0.03-1.5 0.03-3.02 0.05-1.2-0.17-1.2-0.17-2.43-0.34-2.46-3.69-2.26-6.47-2.2-10.7 0.01-0.75 0.01-1.5 0.01-2.27 0.01-2.4 0.04-4.79 0.07-7.19 0.01-1.62 0.01-3.25 0.02-4.87 0.02-3.98 0.06-7.96 0.1-11.9 3.12-1.56 5.67-0.67 9 0z" fill="#FAFBFC"/>
<path transform="translate(1102,1366)" d="m0 0c1.06 7.71 1.12 15.3 1.06 23.1 0 1.25-0.01 2.5-0.01 3.78-0.01 3.05-0.03 6.11-0.05 9.16-7.62 1.69-7.62 1.69-11 0-0.07-4.79-0.13-9.57-0.16-14.4-0.02-1.63-0.04-3.26-0.07-4.89-0.03-2.34-0.05-4.68-0.06-7.02-0.02-0.73-0.03-1.46-0.05-2.21 0-2.93 0.02-5.02 1.63-7.52 2.89-1.69 5.57-0.65 8.71 0z" fill="#EAEBEC"/>
<path transform="translate(599,945)" d="m0 0h13v1h-13v-1z" fill="#030406"/>
<path transform="translate(687,972)" d="m0 0h11v1h-11v-1z" fill="#FBFCFD"/>
<path transform="translate(1072,1129)" d="m0 0h8v1h-8v-1z" fill="#FBFCFD"/>
<path transform="translate(581,1394)" d="m0 0h1v6h-1v-6z" fill="#030406"/>
<path transform="translate(1238,1129)" d="m0 0h6v1h-6v-1z" fill="#FBFCFD"/>
<path transform="translate(743,673)" d="m0 0h6v1h-6v-1z" fill="#030406"/>
<path transform="translate(435,1204)" d="m0 0h5v1h-5v-1z" fill="#030406"/>
<path transform="translate(445,1159)" d="m0 0h5v1h-5v-1z" fill="#030406"/>
<path transform="translate(807,1364)" d="m0 0 4 1z" fill="#FBFCFD"/>
<path transform="translate(746,1364)" d="m0 0 4 1z" fill="#FBFCFD"/>
<path transform="translate(825,1256)" d="m0 0 4 1z" fill="#030406"/>
<path transform="translate(879,945)" d="m0 0 4 1z" fill="#030406"/>
<path transform="translate(406,736)" d="m0 0 1 4z" fill="#030406"/>
<path transform="translate(743,291)" d="m0 0 4 1z" fill="#030406"/>
<path transform="translate(1009,1373)" d="m0 0c3 1 3 1 3 1z" fill="#030406"/>
<path transform="translate(434,1159)" d="m0 0c3 1 3 1 3 1z" fill="#030406"/>
<path transform="translate(529,512)" d="m0 0c3 1 3 1 3 1z" fill="#030406"/>
<path transform="translate(825,491)" d="m0 0c3 1 3 1 3 1z" fill="#030406"/>
<path transform="translate(1040,1402)" d="m0 0 2 1z" fill="#010204"/>
<path transform="translate(1245,1378)" d="m0 0 2 1z" fill="#000102"/>
<path transform="translate(1199,1373)" d="m0 0 2 1z" fill="#030406"/>
<path transform="translate(1140,1373)" d="m0 0 2 1z" fill="#030406"/>
<path transform="translate(1239,1162)" d="m0 0 2 1z" fill="#010204"/>
<path transform="translate(699,487)" d="m0 0 2 1z" fill="#FBFCFD"/>
<path transform="translate(514,481)" d="m0 0 2 1z" fill="#7F8081"/>
<path transform="translate(506,481)" d="m0 0 2 1z" fill="#FBFCFD"/>
<path transform="translate(640,441)" d="m0 0 2 1z" fill="#FBFCFD"/>
</svg>
